<svg width="25" height="17" viewBox="0 0 25 17" fill="none" xmlns="http://www.w3.org/2000/svg">
<g clip-path="url(#clip0_1254_114)">
<path d="M0 0H25V17.0002H0V0Z" fill="white"/>
<path d="M14.0625 0H10.9375V6.90622H0V10.0937H10.9375V16.9999H14.0625V10.0937H25V6.90622H14.0625V0Z" fill="#D80027"/>
<path d="M19.2282 11.4565L25.0004 14.7275V11.4565H19.2282ZM15.2178 11.4565L25.0004 17V15.4325L17.9841 11.4565H15.2178ZM22.3946 17L15.2178 12.9328V17H22.3946Z" fill="#0052B4"/>
<path d="M15.2178 11.4565L25.0004 17V15.4325L17.9841 11.4565H15.2178Z" fill="white"/>
<path d="M15.2178 11.4565L25.0004 17V15.4325L17.9841 11.4565H15.2178Z" fill="#D80027"/>
<path d="M4.41118 11.4561L0 13.9558V11.4561H4.41118ZM9.78262 12.161V16.9996H1.24468L9.78262 12.161Z" fill="#0052B4"/>
<path d="M7.01626 11.4565L0 15.4325V17L9.78262 11.4565H7.01626Z" fill="#D80027"/>
<path d="M5.77222 5.54347L0 2.27249V5.54347H5.77222ZM9.78262 5.54347L0 0V1.56755L7.01626 5.54347H9.78262ZM2.60576 0L9.78262 4.06725V0H2.60576Z" fill="#0052B4"/>
<path d="M9.78262 5.54347L0 0V1.56755L7.01626 5.54347H9.78262Z" fill="white"/>
<path d="M9.78262 5.54347L0 0V1.56755L7.01626 5.54347H9.78262Z" fill="#D80027"/>
<path d="M20.5892 5.54352L25.0004 3.04382V5.54352H20.5892ZM15.2178 4.83858V0H23.7557L15.2178 4.83858Z" fill="#0052B4"/>
<path d="M17.9841 5.54347L25.0004 1.56755V0L15.2178 5.54347H17.9841Z" fill="#D80027"/>
</g>
<defs>
<clipPath id="clip0_1254_114">
<rect width="25" height="17" fill="white"/>
</clipPath>
</defs>
</svg>
