<svg width="25" height="17" viewBox="0 0 25 17" fill="none" xmlns="http://www.w3.org/2000/svg">
<g clip-path="url(#clip0_1254_69)">
<path d="M0 0H25V17H0V0Z" fill="white"/>
<path d="M0 0H25V1.30731H0V0ZM0 2.61462H25V3.92193H0V2.61462ZM0 5.22924H25V6.53655H0V5.22924ZM0 7.84386H25V9.15117H0V7.84386ZM0 10.4635H25V11.7708H0V10.4635ZM0 13.0781H25V14.3854H0V13.0781ZM0 15.6927H25V17H0V15.6927Z" fill="#D80027"/>
<path d="M0 0H12.5V9.15117H0V0Z" fill="#2E52B2"/>
<path d="M2.329 6.90415L2.13407 6.26789L1.91964 6.90415H1.27637L1.79781 7.2869L1.60288 7.92315L2.13407 7.53046L2.65064 7.92315L2.45083 7.2869L2.98202 6.90415H2.329ZM5.07266 6.90415L4.87286 6.26789L4.66818 6.90415H4.02491L4.54635 7.2869L4.35142 7.92315L4.87286 7.53046L5.39917 7.92315L5.20424 7.2869L5.72569 6.90415H5.07266ZM7.82608 6.90415L7.61652 6.26789L7.42159 6.90415H6.7637L7.29976 7.2869L7.09508 7.92315L7.61652 7.53046L8.15259 7.92315L7.94791 7.2869L8.46935 6.90415H7.82608ZM10.5649 6.90415L10.3699 6.26789L10.1653 6.90415H9.51711L10.0434 7.2869L9.84849 7.92315L10.3699 7.53046L10.8963 7.92315L10.6867 7.2869L11.2228 6.90415H10.5649ZM4.87286 3.74274L4.66818 4.379H4.02491L4.54635 4.77169L4.35142 5.39801L4.87286 5.01029L5.39917 5.39801L5.20424 4.77169L5.72569 4.379H5.07266L4.87286 3.74274ZM2.13407 3.74274L1.91964 4.379H1.27637L1.79781 4.77169L1.60288 5.39801L2.13407 5.01029L2.65064 5.39801L2.45083 4.77169L2.98202 4.379H2.329L2.13407 3.74274ZM7.61652 3.74274L7.42159 4.379H6.7637L7.29976 4.77169L7.09508 5.39801L7.61652 5.01029L8.15259 5.39801L7.94791 4.77169L8.46935 4.379H7.82608L7.61652 3.74274ZM10.3699 3.74274L10.1653 4.379H9.51711L10.0434 4.77169L9.84849 5.39801L10.3699 5.01029L10.8963 5.39801L10.6867 4.77169L11.2228 4.379H10.5649L10.3699 3.74274ZM2.13407 1.22754L1.91964 1.85385H1.27637L1.79781 2.24654L1.60288 2.87783L2.13407 2.48514L2.65064 2.87783L2.45083 2.24654L2.98202 1.85385H2.329L2.13407 1.22754ZM4.87286 1.22754L4.66818 1.85385H4.02491L4.54635 2.24654L4.35142 2.87783L4.87286 2.48514L5.39917 2.87783L5.20424 2.24654L5.72569 1.85385H5.07266L4.87286 1.22754ZM7.61652 1.22754L7.42159 1.85385H6.7637L7.29976 2.24654L7.09508 2.87783L7.61652 2.48514L8.15259 2.87783L7.94791 2.24654L8.46935 1.85385H7.82608L7.61652 1.22754ZM10.3699 1.22754L10.1653 1.85385H9.51711L10.0434 2.24654L9.84849 2.87783L10.3699 2.48514L10.8963 2.87783L10.6867 2.24654L11.2228 1.85385H10.5649L10.3699 1.22754Z" fill="white"/>
</g>
<defs>
<clipPath id="clip0_1254_69">
<rect width="25" height="17" fill="white"/>
</clipPath>
</defs>
</svg>
