<svg width="31" height="30" viewBox="0 0 31 30" fill="none" xmlns="http://www.w3.org/2000/svg">
<path d="M27.8838 9.36494L15.8838 4.03244L3.88379 9.36494V29.3899H0.883789V8.38994C0.883789 7.79594 1.23179 7.26044 1.77479 7.02044L15.2748 1.02045C15.4665 0.935175 15.674 0.891113 15.8838 0.891113C16.0936 0.891113 16.3011 0.935175 16.4928 1.02045L29.9928 7.02044C30.2578 7.13817 30.483 7.33018 30.6411 7.57324C30.7992 7.8163 30.8835 8.09998 30.8838 8.38994V29.3899H27.8838V9.36494Z" fill="#775DDE"/>
<path d="M14.3839 23.3902C14.1869 23.3904 13.9918 23.3517 13.8098 23.2762C13.6278 23.2008 13.4625 23.0902 13.3234 22.9507L10.3234 19.9507C10.0502 19.6678 9.89898 19.2889 9.9024 18.8956C9.90582 18.5023 10.0636 18.1261 10.3417 17.848C10.6198 17.5698 10.996 17.4121 11.3893 17.4087C11.7826 17.4053 12.1615 17.5564 12.4444 17.8297L14.3839 19.7692L19.3234 14.8297C19.6049 14.5484 19.9865 14.3905 20.3844 14.3906C20.7823 14.3908 21.1639 14.549 21.4452 14.8304C21.7264 15.1119 21.8844 15.4936 21.8842 15.8915C21.8841 16.2894 21.7259 16.6709 21.4444 16.9522L15.4444 22.9522C15.3051 23.0913 15.1397 23.2015 14.9577 23.2767C14.7758 23.3519 14.5808 23.3904 14.3839 23.3902Z" fill="#775DDE"/>
</svg>
