<svg width="34" height="34" viewBox="0 0 34 34" fill="none" xmlns="http://www.w3.org/2000/svg">
<path d="M31.4443 8.31449H31.3352C31.2936 8.25425 31.2446 8.19951 31.1893 8.15157H31.0618L17.3796 2.89007C17.1749 2.81399 16.9497 2.81399 16.745 2.89007L3.15063 8.00707H3.02313C2.92929 8.09248 2.8553 8.19741 2.80638 8.31449H2.6973C2.59115 8.47423 2.53993 8.6642 2.55138 8.85565V25.7225C2.55019 25.9064 2.60516 26.0864 2.70895 26.2383C2.81274 26.3902 2.9604 26.5067 3.13221 26.5725L16.7435 31.8142C16.9538 31.8949 17.1864 31.8949 17.3966 31.8142L31.008 26.6263C31.1798 26.5606 31.3274 26.444 31.4312 26.2921C31.535 26.1402 31.59 25.9603 31.5888 25.7763V8.85565C31.6007 8.66436 31.5499 8.4744 31.4443 8.31449ZM17.0708 4.69774L28.0868 8.85565L17.0708 12.9413L6.0548 8.85565L17.0708 4.69774ZM4.36613 10.1222L16.1627 14.5322V29.5914L4.36613 25.0892V10.1222ZM29.774 25.0722L17.9775 29.5914V14.5322L29.774 10.1222V25.0722Z" fill="#775DDE"/>
<path d="M12.0983 15.7618L8.75784 14.5322C8.64622 14.4905 8.52748 14.4712 8.4084 14.4754C8.28933 14.4796 8.17225 14.5073 8.06386 14.5567C7.95546 14.6062 7.85786 14.6765 7.77665 14.7637C7.69543 14.8509 7.63218 14.9532 7.59051 15.0648C7.54883 15.1764 7.52956 15.2952 7.53377 15.4143C7.53799 15.5333 7.56562 15.6504 7.61508 15.7588C7.71497 15.9777 7.89774 16.148 8.12317 16.2322L11.4623 17.4788C11.6877 17.563 11.9373 17.5541 12.1562 17.4543C12.3752 17.3544 12.5454 17.1716 12.6296 16.9462C12.7138 16.7207 12.7049 16.4711 12.605 16.2522C12.5051 16.0333 12.3224 15.863 12.0969 15.7788V15.7618H12.0983Z" fill="#775DDE"/>
</svg>
