<svg width="34" height="34" viewBox="0 0 34 34" fill="none" xmlns="http://www.w3.org/2000/svg">
<path d="M10.5907 6.52809H12.6215C12.747 6.5335 12.8698 6.49036 12.9643 6.40764C13.0588 6.32492 13.1179 6.20897 13.1292 6.08386V4.49733H20.2369V6.0204C20.2315 6.1459 20.2746 6.26867 20.3573 6.3632C20.4401 6.45774 20.556 6.51679 20.6811 6.52809H22.7754C22.9009 6.5335 23.0236 6.49036 23.1182 6.40764C23.2127 6.32492 23.2717 6.20897 23.283 6.08386V4.49733C23.2716 3.69301 22.9469 2.92486 22.3782 2.35607C21.8094 1.78727 21.0412 1.46265 20.2369 1.45117H13.1292C12.3249 1.46265 11.5567 1.78727 10.9879 2.35607C10.4191 2.92486 10.0945 3.69301 10.083 4.49733V6.0204C10.0822 6.08731 10.0947 6.15371 10.12 6.21569C10.1452 6.27767 10.1825 6.33398 10.2298 6.38129C10.2772 6.42861 10.3335 6.46597 10.3955 6.49119C10.4574 6.5164 10.5238 6.52895 10.5907 6.52809Z" fill="#775DDE"/>
<path d="M28.8675 9.57422H4.4983C3.69399 9.5857 2.92584 9.91032 2.35704 10.4791C1.78825 11.0479 1.46363 11.8161 1.45215 12.6204V28.8665C1.46363 29.6708 1.78825 30.439 2.35704 31.0078C2.92584 31.5766 3.69399 31.9012 4.4983 31.9127H28.8675C29.6718 31.9012 30.44 31.5766 31.0088 31.0078C31.5776 30.439 31.9022 29.6708 31.9137 28.8665V12.6204C31.9022 11.8161 31.5776 11.0479 31.0088 10.4791C30.44 9.91032 29.6718 9.5857 28.8675 9.57422ZM15.0329 21.0608L11.1618 25.0588C11.0561 25.1214 10.9355 25.1544 10.8127 25.1544C10.6899 25.1544 10.5694 25.1214 10.4637 25.0588L6.52907 21.0608C6.21176 20.8069 6.46561 20.3627 6.9733 20.3627H9.38484C9.36803 19.3626 9.54841 18.369 9.91567 17.4386C10.2829 16.5082 10.8299 15.6593 11.5253 14.9403C12.2207 14.2213 13.0509 13.6464 13.9685 13.2483C14.8861 12.8503 15.8732 12.6369 16.8733 12.6204H17.1271V15.5396C15.8655 15.6121 14.6735 16.1417 13.7741 17.0294C12.8747 17.9171 12.3296 19.1021 12.2406 20.3627H14.5252C15.0329 20.3627 15.2868 20.8069 15.0329 21.0608ZM27.3445 21.0608H24.9329C24.9397 23.1052 24.1348 25.0688 22.6951 26.5204C21.2554 27.972 19.2985 28.793 17.2541 28.8031H17.0637V25.8838C19.9829 25.8838 22.0137 23.98 22.0137 21.0608H19.6656C19.1579 21.0608 18.9675 20.68 19.2214 20.3627L23.156 16.3646C23.2617 16.3021 23.3822 16.2691 23.505 16.2691C23.6278 16.2691 23.7484 16.3021 23.8541 16.3646L27.7887 20.3627C28.0425 20.6165 27.7887 21.0608 27.3445 21.0608Z" fill="#775DDE"/>
</svg>
