<svg width="32" height="33" viewBox="0 0 32 33" fill="none" xmlns="http://www.w3.org/2000/svg">
<path d="M12.7709 22.1955V29.3986L6.6486 33V25.797L12.7709 22.1955ZM2.57205 23.3991V25.1334L3.68162 25.7861V24.2065C3.68162 24.2035 3.68238 24.2006 3.6825 24.1976C3.68276 24.1916 3.68301 24.1857 3.68358 24.1798C3.68415 24.1746 3.68503 24.1693 3.68586 24.164C3.68687 24.1574 3.68788 24.151 3.68946 24.1446C3.69073 24.1393 3.69212 24.1342 3.69364 24.1289C3.69509 24.1238 3.69686 24.1191 3.6987 24.1141C3.70097 24.1078 3.70312 24.1015 3.70585 24.0955C3.70831 24.0899 3.71122 24.0847 3.71407 24.0792C3.71527 24.0771 3.71578 24.0747 3.71704 24.0725C3.71831 24.0703 3.72002 24.0686 3.72122 24.0666C3.72438 24.0613 3.72748 24.056 3.73102 24.051C3.73475 24.0457 3.73887 24.0407 3.74304 24.0357C3.74633 24.0315 3.74962 24.0276 3.75304 24.0238C3.75677 24.0197 3.7605 24.0158 3.76449 24.0119C3.76904 24.0076 3.77398 24.0034 3.77897 23.9994C3.78315 23.996 3.78713 23.9925 3.7915 23.9893C3.79624 23.9858 3.80111 23.9826 3.80617 23.9794C3.80858 23.9779 3.8106 23.9759 3.81307 23.9744L10.0669 20.2954L8.95749 19.6428L2.57205 23.3991ZM6.12234 25.797L4.20774 24.6708V26.2504C4.20774 26.3462 4.15758 26.4347 4.07623 26.4826C4.03549 26.5066 3.99013 26.5186 3.94471 26.5186C3.89929 26.5186 3.85381 26.5066 3.81313 26.4826L2.17744 25.5204C2.09609 25.4725 2.04593 25.384 2.04593 25.2882V23.3989L0 22.1955V29.3986L6.12234 33V25.797ZM6.3855 25.3327L12.5079 21.7313L10.5932 20.605L4.47084 24.2065L6.3855 25.3327ZM0.263031 21.7313L2.30915 22.9347L8.43136 19.3334L6.38544 18.1298L0.263031 21.7313ZM25.8777 25.797V33L32 29.3986V22.1955L25.8777 25.797ZM21.8011 25.1334L22.9106 25.7861V24.2065C22.9106 24.2035 22.9114 24.2006 22.9116 24.1976C22.9118 24.1914 22.9121 24.1855 22.9126 24.1795C22.9132 24.1744 22.914 24.1695 22.9149 24.1645C22.9159 24.1578 22.9169 24.1512 22.9184 24.1446C22.9197 24.139 22.9212 24.1338 22.9228 24.1284C22.9242 24.1237 22.9259 24.1191 22.9275 24.1146C22.9298 24.108 22.9321 24.1017 22.9349 24.0955C22.9374 24.0898 22.9403 24.0843 22.9433 24.0788C22.9445 24.0769 22.9449 24.0746 22.9461 24.0725C22.9473 24.0705 22.9489 24.0689 22.9501 24.0669C22.9533 24.0616 22.9564 24.0562 22.96 24.051C22.9639 24.0456 22.9681 24.0404 22.9724 24.0353C22.9755 24.0313 22.9786 24.0276 22.9819 24.0241C22.9857 24.0199 22.9895 24.0159 22.9935 24.0119C22.9982 24.0074 23.0032 24.0032 23.0082 23.9991C23.0122 23.9958 23.0161 23.9924 23.0203 23.9895C23.0251 23.9859 23.03 23.9827 23.0352 23.9794C23.0376 23.9779 23.0395 23.9759 23.0421 23.9744L29.296 20.2954L28.1866 19.6428L21.801 23.3991V25.1334H21.8011ZM19.4921 21.7313L21.5382 22.9347L27.6604 19.3334L25.6145 18.1298L19.4921 21.7313ZM25.3514 25.797L23.4367 24.6707V26.2504C23.4367 26.3462 23.3866 26.4347 23.3052 26.4826C23.2645 26.5066 23.2191 26.5186 23.1737 26.5186C23.1282 26.5186 23.0828 26.5066 23.0421 26.4826L21.4064 25.5204C21.3251 25.4725 21.2749 25.384 21.2749 25.2882V23.3989L19.2291 22.1955V29.3985L25.3514 33V25.797ZM25.6145 25.3327L31.7369 21.7313L29.8222 20.605L23.6998 24.2065L25.6145 25.3327ZM22.3854 11.2687V4.0657L16.2631 7.66715V9.80848C17.2967 9.9408 18.0992 10.8413 18.0992 11.9299V13.7901L22.3854 11.2687ZM12.1866 7.00361L13.2961 7.65645V6.07683C13.2961 6.0738 13.2969 6.0709 13.2971 6.06787C13.2973 6.06182 13.2976 6.05589 13.2981 6.04989C13.2987 6.04474 13.2995 6.03971 13.3003 6.03455C13.3014 6.02798 13.3024 6.02147 13.3039 6.01489C13.3052 6.00961 13.3067 6.00432 13.3082 5.99891C13.3097 5.99414 13.3114 5.98937 13.3131 5.98454C13.3154 5.97822 13.3176 5.97197 13.3204 5.96578C13.3228 5.96024 13.3257 5.95495 13.3286 5.94954C13.3298 5.94741 13.3303 5.94503 13.3316 5.94277C13.3329 5.94064 13.3346 5.93897 13.3358 5.93684C13.3389 5.93156 13.342 5.9264 13.3454 5.9215C13.3493 5.91609 13.3534 5.91119 13.3575 5.90603C13.3609 5.90191 13.3641 5.89785 13.3677 5.89404C13.3713 5.88998 13.3751 5.88612 13.3789 5.88244C13.3835 5.87806 13.3883 5.874 13.3933 5.86987C13.3976 5.86633 13.4018 5.86272 13.4062 5.85943C13.4109 5.85602 13.4157 5.85286 13.4207 5.84989C13.4231 5.84828 13.4251 5.84622 13.4276 5.84474L19.6816 2.16575L18.5721 1.51304L12.1866 5.2693V7.00361ZM13.9007 11.9299C13.9007 10.8413 14.7033 9.9408 15.7368 9.80848V7.66715L13.8222 6.54096V8.12071C13.8222 8.21636 13.772 8.30498 13.6907 8.35287C13.6499 8.37678 13.6046 8.38877 13.5591 8.38877C13.5137 8.38877 13.4682 8.37678 13.4276 8.35287L11.7919 7.39045C11.7105 7.34263 11.6604 7.25414 11.6604 7.15842V5.26917L9.61456 4.0657V11.2687L13.9008 13.7901L13.9007 11.9299ZM16 7.20302L22.1224 3.60145L20.2076 2.47513L14.0854 6.07683L16 7.20302ZM9.87759 3.60145L11.9236 4.80492L18.0459 1.2036L16 0L9.87759 3.60145ZM10.2188 19.4231H14.1638C14.3091 19.4231 14.4269 19.543 14.4269 19.6911V23.7107C14.4269 24.5944 15.1325 25.3134 15.9999 25.3134C16.8673 25.3134 17.573 24.5944 17.573 23.7107V19.6911C17.573 19.543 17.6908 19.4231 17.8361 19.4231H21.7811C22.6485 19.4231 23.3542 18.704 23.3542 17.8203C23.3542 16.9366 22.6485 16.2176 21.7811 16.2176H17.8361C17.6908 16.2176 17.573 16.0976 17.573 15.9496V11.93C17.573 11.0462 16.8673 10.3272 15.9999 10.3272C15.1325 10.3272 14.4269 11.0462 14.4269 11.93V15.9496C14.4269 16.0976 14.3091 16.2176 14.1638 16.2176H10.2188C9.35134 16.2176 8.64569 16.9366 8.64569 17.8203C8.64569 18.704 9.35134 19.4231 10.2188 19.4231Z" fill="#775DDE"/>
</svg>
