<svg width="34" height="34" viewBox="0 0 34 34" fill="none" xmlns="http://www.w3.org/2000/svg">
<g clip-path="url(#clip0_1584_245)">
<path d="M7.11208 7.00533C5.22804 7.00533 3.70072 5.47801 3.70072 3.59397C3.70072 1.70993 5.22804 0.182617 7.11208 0.182617C8.99612 0.182617 10.5234 1.70993 10.5234 3.59397C10.5234 5.47801 8.99612 7.00533 7.11208 7.00533Z" fill="#775DDE"/>
<path d="M4.25458 8.31836L7.11232 12.2622L9.93631 8.5841L13.3171 12.7421L16.0293 10.3325C16.5987 9.82526 17.4708 9.87693 17.9823 10.4464C18.4863 11.0169 18.4378 11.89 17.8673 12.3983L14.0763 15.7664C13.8243 15.9921 13.4985 16.1165 13.1621 16.1165C13.1283 16.1165 13.0967 16.1154 13.0587 16.1102C12.6854 16.0806 12.3353 15.8982 12.096 15.6061L10.5954 13.7407V18.8783C10.5954 19.5215 10.5954 20.1237 10.2527 20.6372V31.833C10.2527 32.5996 9.55669 33.1828 8.79216 33.1828C8.02764 33.1828 7.32955 32.6566 7.32955 31.775H6.96047C6.96047 32.6566 6.33198 33.1828 5.56956 33.1828C4.80715 33.1828 4.17549 32.5975 4.17549 31.833V20.6362C3.83278 20.1194 3.83278 19.5205 3.83278 18.8772V14.4166C3.24436 15.6493 3.22221 17.2701 3.22854 19.3359C3.2296 20.1015 2.52518 20.75 1.75855 20.75C0.997187 20.75 0.377131 20.1099 0.373968 19.3433C0.357096 12.2549 2.65594 9.41716 4.25458 8.31836Z" fill="#775DDE"/>
<path d="M5.52227 7.36174L6.33214 7.70973C6.49875 7.42712 6.80034 7.2373 7.15466 7.2373C7.51003 7.2373 7.81268 7.43028 7.97507 7.71605L8.78494 7.37545C8.90199 7.32483 9.06755 7.33854 9.17089 7.40814C9.27951 7.47984 9.36914 7.599 9.36914 7.72871V8.74104C9.36914 8.86231 9.28689 8.97725 9.18987 9.04896C9.08969 9.12067 8.95155 9.14281 8.83345 9.10907C8.51077 9.00995 8.10267 8.89079 7.87595 8.82119C7.69984 9.0226 7.43727 9.1502 7.1536 9.1502C6.85412 9.1502 6.59049 9.01311 6.41228 8.80221C6.18767 8.87075 5.79433 8.99096 5.47587 9.08798C5.35987 9.12172 5.27551 9.10063 5.17639 9.02893C5.07726 8.95722 5.05617 8.84333 5.05617 8.72101V7.71395C5.05617 7.58529 5.0857 7.46824 5.19326 7.39654C5.30293 7.32377 5.40205 7.31323 5.52227 7.36174Z" fill="#775DDE"/>
<path d="M20.7691 12.9357C20.9094 12.7965 21.0971 12.7174 21.2943 12.7174C21.4904 12.7174 21.6802 12.7965 21.8184 12.9357L24.171 15.2894C24.4853 15.6026 24.9904 15.6026 25.3036 15.2894L28.9553 11.6429C29.0671 11.529 29.1314 11.375 29.1314 11.2158C29.1314 11.0565 29.0671 10.9026 28.9553 10.7898L28.2341 10.0716C28.1592 9.99781 28.1349 9.88498 28.1771 9.78796C28.2182 9.68884 28.3121 9.62451 28.4175 9.62451H32.1484C32.3762 9.62451 32.5924 9.71625 32.7505 9.8776C32.9087 10.0389 32.9962 10.2572 32.9931 10.485L32.9372 14.1473C32.9361 14.2517 32.8718 14.3456 32.7759 14.3856C32.6788 14.4247 32.5681 14.4025 32.4932 14.3276L31.6444 13.4777C31.5336 13.3638 31.3776 13.3016 31.2204 13.3016C31.0591 13.3006 30.9051 13.3649 30.7913 13.4777L25.3025 18.9665C25.1528 19.1173 24.9482 19.2016 24.7373 19.2016C24.5253 19.2016 24.3207 19.1173 24.17 18.9665L21.8585 16.6539C21.7087 16.5031 21.5041 16.4198 21.2932 16.4198C21.0802 16.4198 20.8778 16.5042 20.727 16.6539L16.4846 20.8941C16.1947 21.1841 15.7222 21.1841 15.4333 20.8941L14.6445 20.1074C14.5053 19.9672 14.4262 19.7784 14.4262 19.5823C14.4262 19.3851 14.5053 19.1974 14.6445 19.0571L20.7691 12.9357Z" fill="#775DDE"/>
</g>
<defs>
<clipPath id="clip0_1584_245">
<rect width="33" height="33" fill="white" transform="matrix(-1 0 0 1 33.1836 0.182617)"/>
</clipPath>
</defs>
</svg>
