<svg width="37" height="35" viewBox="0 0 37 35" fill="none" xmlns="http://www.w3.org/2000/svg">
<path fill-rule="evenodd" clip-rule="evenodd" d="M3.4248 24.3349V32.8294C7.91688 33.2955 8.10787 35.6657 11.6075 34.8188L23.9818 31.8308C25.0954 31.5622 25.3371 30.246 24.3143 29.7135C24.0073 29.5524 23.6335 29.4986 23.2629 29.5903L15.1978 31.5338C14.9401 31.6902 14.6363 31.8024 14.2927 31.8593C12.9421 32.0742 10.8313 31.3805 7.92654 28.7876C7.7102 28.598 7.69429 28.2677 7.88836 28.0528C8.07924 27.838 8.41172 27.8222 8.62804 28.0149C11.2543 30.3598 13.0456 31.0076 14.1304 30.8338C14.4884 30.7753 14.8288 30.5936 15.0276 30.2887C15.535 29.5128 15.1724 28.1919 14.1002 27.849C11.3371 26.961 10.1902 25.8424 9.29295 24.9717C8.32103 24.0268 7.70226 23.4201 4.95032 24.0094L3.4248 24.3349ZM23.2452 5.60779C27.7246 5.60779 31.3514 9.21035 31.3514 13.6598C31.3514 18.1092 27.7246 21.7117 23.2452 21.7117C18.7658 21.7117 15.139 18.1092 15.139 13.6598C15.139 9.21188 18.7706 5.60779 23.2452 5.60779ZM19.0284 26.6624C18.6132 26.5297 18.3842 26.0888 18.5178 25.6764C18.6514 25.2641 19.0952 25.0365 19.5104 25.1692C20.7273 25.5579 21.9664 25.7476 23.2454 25.7476C29.9646 25.7476 35.4128 20.3358 35.4128 13.6615C35.4128 6.98725 29.9646 1.57545 23.2454 1.57545C16.5262 1.57545 11.078 6.98725 11.078 13.6615C11.078 16.1169 11.8224 18.4949 13.2175 20.5174L13.1888 19.514C13.1761 19.0811 13.5213 18.7176 13.9571 18.7097C14.393 18.6971 14.7589 19.04 14.7668 19.4729L14.867 22.6931C14.9163 23.2177 14.4391 23.6459 13.9158 23.5353L10.5912 22.8337C10.1633 22.7436 9.88967 22.3265 9.98035 21.9015C10.071 21.4764 10.491 21.2046 10.9189 21.2947L11.9958 21.5222C10.359 19.2185 9.49042 16.4866 9.49042 13.6628C9.49042 6.11806 15.648 0 23.2452 0C30.8407 0 37 6.11645 37 13.6628C37 21.2059 30.8407 27.3228 23.2452 27.3228C21.8247 27.3228 20.3819 27.0954 19.0284 26.6624ZM23.2452 7.32853C19.7249 7.32853 16.8713 10.1648 16.8713 13.6598C16.8713 17.1565 19.7266 19.991 23.2452 19.991C26.7654 19.991 29.619 17.1548 29.619 13.6598C29.619 10.1646 26.7653 7.32853 23.2452 7.32853ZM22.7218 9.55801V9.96725C20.5616 10.5045 20.5616 13.5825 22.7218 14.1198V16.2498C22.3734 16.0602 22.1364 15.6967 22.1364 15.3001C22.1412 14.5986 21.0977 14.5859 21.0929 15.3001C21.0929 16.2703 21.7785 17.1157 22.7218 17.3511V17.7635C22.7218 18.0526 22.9541 18.2833 23.2452 18.2833C23.5363 18.2833 23.7685 18.0526 23.7685 17.7635V17.3542C24.1503 17.2594 24.4955 17.0619 24.7659 16.7933C25.959 15.6082 25.364 13.5984 23.7685 13.2065V11.0766C24.1137 11.263 24.3539 11.6249 24.3539 12.0262C24.3539 12.3312 24.583 12.5634 24.8741 12.5634C25.1604 12.5634 25.3974 12.3328 25.3974 12.0468C25.4022 11.0561 24.7118 10.2107 23.7685 9.9753V9.56291C23.7685 9.27375 23.5363 9.04304 23.2452 9.04304C22.9541 9.04304 22.7218 9.27361 22.7218 9.55801ZM23.7685 14.3044V16.2448C24.5464 15.8324 24.5464 14.7216 23.7685 14.3044ZM22.7218 13.0119V11.0716C21.9456 11.4903 21.9456 12.5995 22.7218 13.0119ZM27.0135 9.91656C24.9313 7.84823 21.5576 7.84823 19.475 9.91656C17.3928 11.9849 17.3928 15.3361 19.475 17.4047C21.5573 19.4733 24.931 19.473 27.0135 17.4047C29.0961 15.3363 29.0958 11.9852 27.0135 9.91656ZM2.37652 23.4592V33.7946C2.37652 33.9352 2.2604 34.0506 2.11883 34.0506H0.257695C0.11612 34.0506 0 33.9352 0 33.7946V23.4592C0 23.3186 0.116124 23.2033 0.257695 23.2033H2.11883C2.26517 23.2033 2.37652 23.3186 2.37652 23.4592Z" fill="#775DDE"/>
</svg>
