<svg width="85" height="16" viewBox="0 0 85 16" fill="none" xmlns="http://www.w3.org/2000/svg">
<path d="M65.0067 11.5114C65.0067 11.729 64.9868 11.9535 64.9257 12.1507C64.6723 12.9695 63.8031 13.662 62.7158 13.662C61.8092 13.662 61.0891 13.1596 61.0891 12.0985C61.0891 10.4746 62.9214 10.0261 65.0072 10.0374L65.0067 11.5112V11.5114ZM68.2783 8.68131C68.2783 6.00351 67.1053 3.64726 63.1421 3.64726C61.1076 3.64726 59.493 4.20468 58.6116 4.7015L59.2571 6.85427C60.0626 6.35822 61.3463 5.94758 62.5612 5.94758C64.5715 5.94214 64.9007 7.05813 64.9007 7.77235V7.94141C60.5186 7.93509 57.7485 9.41527 57.7485 12.4306C57.7485 14.2731 59.1593 15.9987 61.6119 15.9987C63.1188 15.9987 64.381 15.4119 65.1364 14.4711H65.211C65.211 14.4711 65.7108 16.5138 68.4701 15.7322C68.3261 14.8827 68.2788 13.9759 68.2788 12.8855L68.2784 8.68131M0 0.000505899C0 0.000505899 2.86362 11.4469 3.32089 13.3046C3.85431 15.4729 4.81568 16.2712 7.58616 15.7322L9.37412 8.63588C9.8275 6.87236 10.1309 5.61502 10.4231 3.8229H10.4739C10.679 5.634 10.97 6.87781 11.343 8.64171C11.343 8.64171 12.0705 11.8635 12.4437 13.5552C12.8173 15.2463 13.8572 16.3128 16.5712 15.7322L20.8318 0H17.3929L15.9377 6.80213C15.5464 8.78128 15.1918 10.3296 14.9181 12.1398H14.8694C14.6207 10.3455 14.3041 8.86038 13.9067 6.93159L12.3929 0H8.80918L7.18895 6.75683C6.73038 8.81064 6.30035 10.4684 6.02793 12.2184H5.97838C5.6987 10.5705 5.3264 8.48618 4.92348 6.49906C4.92348 6.49906 3.96159 1.66596 3.62327 0L0 0.000505899ZM27.3369 11.5114C27.3369 11.729 27.317 11.9535 27.255 12.1507C27.0021 12.9695 26.1324 13.662 25.0451 13.662C24.1383 13.662 23.4193 13.1596 23.4193 12.0985C23.4193 10.4746 25.2511 10.0261 27.3373 10.0374L27.3369 11.5112V11.5114ZM30.6081 8.68131C30.6081 6.00351 29.4352 3.64726 25.4727 3.64726C23.4377 3.64726 21.8218 4.20468 20.9409 4.7015L21.5857 6.85427C22.391 6.35822 23.6747 5.94758 24.8899 5.94758C26.9017 5.94214 27.2309 7.05813 27.2309 7.77235V7.94141C22.8469 7.93509 20.0782 9.41527 20.0782 12.4306C20.0782 14.2731 21.4882 15.9987 23.9389 15.9987C25.448 15.9987 26.7094 15.4119 27.4657 14.4711H27.5394C27.5394 14.4711 28.0406 16.5138 30.7993 15.7322C30.6551 14.8827 30.6081 13.9759 30.6081 12.8855V8.68131ZM36.0676 12.3927V0.000505899H32.7921V15.7327H36.0676V12.3927ZM78.9169 0.000505899V11.6059C78.9169 13.2067 79.2263 14.327 79.886 15.0126C80.464 15.612 81.4137 16 82.5527 16C83.5214 16 84.4739 15.8197 84.9233 15.6571L84.8811 13.1609C84.5466 13.2406 84.1627 13.3051 83.637 13.3051C82.5209 13.3051 82.1477 12.6076 82.1477 11.1712V6.73076H85V3.72027H82.1477V0.000505899H78.9169ZM70.4624 3.91414V15.7327H73.8413V9.6814C73.8413 9.35428 73.8615 9.0693 73.9146 8.80862C74.1646 7.54039 75.1582 6.73076 76.5856 6.73076C76.9768 6.73076 77.2569 6.77227 77.5603 6.81428V3.72027C77.3057 3.67079 77.1329 3.64764 76.8161 3.64764C75.5552 3.64764 74.1206 4.44132 73.5186 6.14385H73.4272V3.91414H70.4624ZM38.3611 3.91414V15.7327H41.653V8.80229C41.653 8.47707 41.6922 8.13313 41.8077 7.83499C42.0805 7.13722 42.7462 6.32 43.8085 6.32C45.1375 6.32 45.7581 7.41549 45.7581 8.99654V15.7319H49.0475V8.717C49.0475 8.40672 49.0909 8.03265 49.185 7.75906C49.4551 6.96487 50.1722 6.31911 51.1599 6.31911C52.5065 6.31911 53.1529 7.39537 53.1529 9.25633V15.7315H56.4445V8.77028C56.4445 5.09961 54.5337 3.6465 52.3764 3.6465C51.4219 3.6465 50.6677 3.87972 49.9856 4.28745C49.4129 4.63165 48.8992 5.11935 48.451 5.76042H48.4024C47.8822 4.48675 46.6582 3.64713 45.0633 3.64713C43.0144 3.64713 42.0935 4.66037 41.5349 5.51961H41.4858V3.91376H38.3611" fill="#1A75CF"/>
</svg>
