<svg width="45" height="30" viewBox="0 0 45 30" fill="none" xmlns="http://www.w3.org/2000/svg">
<path d="M31.6755 6.29882C31.6755 2.84568 27.4892 0.0463867 22.325 0.0463867C17.1609 0.0463867 12.9746 2.84568 12.9746 6.29882C12.9746 9.75196 17.1609 12.5513 22.325 12.5513C27.4892 12.5513 31.6755 9.75196 31.6755 6.29882ZM26.1655 3.88699L23.0487 9.09736C22.9513 9.26018 22.7382 9.37924 22.4818 9.41435C22.4293 9.42148 22.3768 9.42504 22.325 9.42504C22.1203 9.42504 21.9217 9.3711 21.7741 9.27239L18.6573 7.18825C18.3529 6.98472 18.3529 6.655 18.6573 6.45147C18.9617 6.24794 19.4548 6.24794 19.7591 6.45147L22.0404 7.97692L24.7182 3.50029C24.878 3.23214 25.3346 3.1029 25.731 3.20975C26.1305 3.3166 26.3253 3.61986 26.1655 3.88699Z" fill="#775DDE"/>
<path d="M0.507812 25.0565C0.507812 25.4223 0.794687 25.7617 1.26419 25.95C1.26419 25.95 9.07172 29.222 9.07904 29.2248V22.2326L0.507812 18.9575V25.0565Z" fill="#775DDE"/>
<path d="M10.6603 14.7841C10.1657 14.5856 9.55082 14.5856 9.05621 14.7841C9.05621 14.7841 1.16527 17.9631 1.11523 17.9892L9.85824 21.3301L18.6013 17.9892C18.5512 17.9631 10.6603 14.7841 10.6603 14.7841Z" fill="#775DDE"/>
<path d="M10.6377 29.2248C10.645 29.222 18.4525 25.95 18.4525 25.95C18.922 25.7617 19.2089 25.4223 19.2089 25.0565V18.9575L10.6377 22.2326V29.2248Z" fill="#775DDE"/>
<path d="M25.4424 25.0565C25.4424 25.4223 25.7293 25.7617 26.1988 25.95C26.1988 25.95 34.0063 29.222 34.0136 29.2248V22.2326L25.4424 18.9575V25.0565Z" fill="#775DDE"/>
<path d="M35.5948 14.7841C35.1002 14.5856 34.4854 14.5856 33.9908 14.7841C33.9908 14.7841 26.0998 17.9631 26.0498 17.9892L34.7928 21.3301L43.5358 17.9892C43.4858 17.9631 35.5948 14.7841 35.5948 14.7841Z" fill="#775DDE"/>
<path d="M35.5723 22.2326V29.2248C35.5796 29.222 43.3871 25.95 43.3871 25.95C43.8566 25.7617 44.1435 25.4223 44.1435 25.0565V18.9575L35.5723 22.2326Z" fill="#775DDE"/>
</svg>
