<svg width="12" height="11" viewBox="0 0 12 11" fill="none" xmlns="http://www.w3.org/2000/svg">
<path d="M1.70901 6.80896C1.82102 6.78051 1.93972 6.79693 2.03981 6.85471C2.1399 6.9125 2.21346 7.00709 2.24483 7.11832L2.75212 9.01153L5.35486 4.50345C5.41289 4.40308 5.50839 4.32985 5.62038 4.29985C5.73236 4.26984 5.85168 4.28551 5.95212 4.34342L7.58969 5.29363L10.0001 1.12696C10.0276 1.07508 10.0654 1.02928 10.111 0.992289C10.1567 0.955302 10.2093 0.927888 10.2658 0.911683C10.3222 0.895478 10.3814 0.890814 10.4397 0.897969C10.498 0.905123 10.5543 0.92395 10.6052 0.953326C10.6561 0.982703 10.7005 1.02203 10.7359 1.06895C10.7712 1.11588 10.7968 1.16944 10.811 1.22645C10.8252 1.28346 10.8277 1.34275 10.8185 1.40077C10.8093 1.4588 10.7885 1.51438 10.7574 1.56419L8.12837 6.10951C8.10225 6.16119 8.0648 6.20632 8.01881 6.24153C7.92595 6.30867 7.81163 6.33931 7.69764 6.32759C7.63857 6.3206 7.58173 6.30079 7.53111 6.26954L5.89506 5.32497L3.59081 9.32429L5.28118 8.87136C5.39326 8.84132 5.51267 8.85705 5.61316 8.91506C5.71365 8.97308 5.78697 9.06864 5.817 9.18071C5.84703 9.29279 5.83131 9.41221 5.7733 9.5127C5.71528 9.61318 5.61972 9.68651 5.50764 9.71654L2.69036 10.4714C2.57835 10.4999 2.45965 10.4835 2.35956 10.4257C2.25947 10.3679 2.1859 10.2733 2.15454 10.1621L1.4072 7.37296C1.38871 7.31614 1.3819 7.25618 1.38718 7.19666C1.39245 7.13715 1.40971 7.07931 1.4379 7.02664C1.46609 6.97396 1.50463 6.92752 1.55122 6.89011C1.59781 6.85271 1.65148 6.8251 1.70901 6.80896Z" fill="#FA484B" stroke="#FA484B"/>
</svg>
