<svg width="50" height="22" viewBox="0 0 50 22" fill="none" xmlns="http://www.w3.org/2000/svg">
<path d="M27.9069 0.627441C27.0659 0.627441 26.3848 1.08291 26.3848 1.64528V17.9307C26.3848 18.4931 27.0659 18.9485 27.9069 18.9485C28.7479 18.9485 29.4291 18.4931 29.4291 17.9307V1.64528C29.4291 1.08291 28.7479 0.627441 27.9069 0.627441Z" fill="#775DDE"/>
<path d="M37.0394 9.27881C36.6189 9.27881 36.2783 9.50655 36.2783 9.78773C36.2783 10.0689 36.6189 10.2966 37.0394 10.2966H42.3672C42.7877 10.2966 43.1283 10.0689 43.1283 9.78773C43.1283 9.50655 42.7877 9.27881 42.3672 9.27881H37.0394Z" fill="#775DDE"/>
<path d="M35.5169 7.24321C35.711 7.24321 35.9051 7.19359 36.0554 7.09435L40.6219 4.04083C40.9187 3.84235 40.9187 3.51918 40.6219 3.32073C40.3251 3.12227 39.8418 3.12225 39.545 3.32073L34.9785 6.37424C34.6817 6.57272 34.6817 6.8959 34.9785 7.09435C35.1269 7.19359 35.3209 7.24321 35.5169 7.24321Z" fill="#775DDE"/>
<path d="M40.6219 15.5354L36.0554 12.4819C35.7586 12.2834 35.2752 12.2834 34.9785 12.4819C34.6817 12.6803 34.6816 13.0035 34.9785 13.202L39.545 16.2555C39.6934 16.3547 39.8874 16.4044 40.0834 16.4044C40.2794 16.4044 40.4716 16.3547 40.6219 16.2555C40.9187 16.057 40.9187 15.7338 40.6219 15.5354Z" fill="#775DDE"/>
<path d="M45.4112 1.64541C45.4112 3.68109 40.8447 3.68109 40.8447 1.64541C40.8447 -0.390267 45.4112 -0.390267 45.4112 1.64541Z" fill="#775DDE"/>
<path d="M45.4112 17.9311C45.4112 19.9667 40.8447 19.9667 40.8447 17.9311C40.8447 15.8954 45.4112 15.8954 45.4112 17.9311Z" fill="#775DDE"/>
<path d="M49.2169 9.78799C49.2169 11.8237 44.6504 11.8237 44.6504 9.78799C44.6504 7.75231 49.2169 7.75231 49.2169 9.78799Z" fill="#775DDE"/>
<path d="M34.7556 8.77002C34.7556 8.52065 34.4854 8.30944 34.1201 8.26873L30.9502 7.91504V11.6607L34.1201 11.307C34.4873 11.2663 34.7556 11.0538 34.7556 10.8057V8.77002Z" fill="#775DDE"/>
<path d="M0.507812 7.2432V12.3324C0.507812 13.4546 1.87396 14.3681 3.55214 14.3681H12.6851V5.20752H3.55214C1.87396 5.20752 0.507812 6.12103 0.507812 7.2432Z" fill="#775DDE"/>
<path d="M5.50781 14.2779L16.163 16.8225V2.57275L5.50781 5.11735V14.2779Z" fill="#775DDE"/>
<path d="M6.59668 20.4754C6.59668 21.0378 7.27783 21.4933 8.11884 21.4933H9.64101C10.482 21.4933 11.1632 21.0378 11.1632 20.4754V15.3862H6.59668V20.4754Z" fill="#775DDE"/>
</svg>
