<svg width="66" height="67" viewBox="0 0 66 67" fill="none" xmlns="http://www.w3.org/2000/svg">
<path fill-rule="evenodd" clip-rule="evenodd" d="M37.8463 30.3539C37.8463 33.747 37.9271 36.5755 36.2155 39.5901C34.8331 42.0421 32.6331 43.5472 30.1893 43.5472C26.85 43.5472 24.8952 41.0039 24.8952 37.2335C24.8952 29.8182 31.5477 28.4701 37.8463 28.4701V30.3539ZM46.6255 51.5829C46.048 52.0991 45.216 52.135 44.5667 51.7849C41.6733 49.3821 41.1556 48.2705 39.5757 45.9829C34.7971 50.8513 31.4114 52.3115 25.2212 52.3115C17.8902 52.3115 12.1901 47.7888 12.1901 38.7416C12.1901 31.6733 16.0171 26.8678 21.4743 24.5111C26.1983 22.4376 32.7969 22.0614 37.8462 21.4951V20.3641C37.8462 18.2921 38.0077 15.8406 36.7868 14.0504C35.7276 12.4481 33.6914 11.7891 31.9006 11.7891C28.58 11.7891 25.6268 13.4902 24.9026 17.0165C24.7507 17.8021 24.1791 18.5776 23.3886 18.6182L14.9505 17.704C14.2384 17.544 13.4454 16.9715 13.6519 15.884C15.5901 5.6461 24.8361 2.55273 33.1215 2.55273C37.357 2.55273 42.8956 3.68376 46.235 6.88785C50.4705 10.8466 50.0635 16.124 50.0635 21.8729V35.4368C50.0635 39.5167 51.7571 41.3076 53.349 43.5083C53.9054 44.2983 54.0311 45.2408 53.322 45.8183C51.5431 47.3099 48.3818 50.0553 46.6432 51.6023L46.6255 51.5829ZM58.557 53.9963C50.4719 57.4254 41.6853 59.083 33.6931 59.083C21.8423 59.083 10.3708 55.8334 1.095 50.4339C0.282631 49.9611 -0.318845 50.7945 0.355979 51.4049C8.95428 59.1696 20.3165 63.8346 32.9347 63.8346C41.9383 63.8346 52.393 61.0024 59.6058 55.6808C60.7981 54.7982 59.7763 53.4786 58.557 53.9963ZM60.7099 60.4774C60.4465 61.1356 61.0122 61.4019 61.6076 60.9023C65.4766 57.6647 66.476 50.8842 65.683 49.9044C64.8975 48.9335 58.1336 48.097 54.0042 50.9951C53.3698 51.4438 53.4806 52.0572 54.1839 51.9735C56.5088 51.6937 61.6839 51.0729 62.607 52.2549C63.5285 53.4367 61.5807 58.302 60.7099 60.4774Z" fill="white"/>
</svg>
