<svg width="36" height="31" viewBox="0 0 36 31" fill="none" xmlns="http://www.w3.org/2000/svg">
<path d="M23.7206 24.5746C23.7206 25.0974 23.2605 25.6214 22.7102 25.5851C22.2476 25.5562 21.785 25.5487 21.3224 25.5211C20.8911 25.4986 20.4598 25.4747 20.0261 25.4622C17.9801 25.4058 15.929 25.4497 13.8805 25.4497C12.8187 25.4497 11.7543 25.4522 10.6899 25.4672C9.54281 25.4848 8.40823 25.5863 7.26738 25.728C7.00662 25.7593 6.69696 25.5938 6.52019 25.4183C6.32587 25.2215 6.21304 24.9507 6.21304 24.6711C6.21304 24.3928 6.32462 24.1233 6.52019 23.9264C6.73707 23.7121 6.97527 23.6519 7.26738 23.6168C8.25528 23.5014 9.23691 23.4388 10.2311 23.4388C10.285 23.4388 10.3401 23.4388 10.3941 23.4388C12.5052 23.4538 14.6177 23.4676 16.7289 23.4776C17.1451 23.4801 17.5638 23.4776 17.9838 23.4751C18.5542 23.4726 19.1234 23.4676 19.6963 23.4751C20.7018 23.4902 21.7035 23.5679 22.7089 23.5604C23.2605 23.5591 23.7206 24.0242 23.7206 24.5746ZM23.0625 18.9544C22.5798 18.9594 22.0984 18.9907 21.6157 18.9907C21.0892 18.9932 20.5614 18.9907 20.0323 18.9907C19.0068 18.9957 17.9813 18.9982 16.9533 18.9807C14.7518 18.9418 12.5479 18.8954 10.3452 18.8077C9.04008 18.7563 7.73375 18.6685 6.42867 18.6134C6.41488 18.6121 6.39984 18.6121 6.38605 18.6121C5.82314 18.6121 5.35928 19.1311 5.35928 19.6802C5.35928 20.277 5.84696 20.7271 6.42867 20.7471C7.63722 20.7885 8.84451 20.8111 10.0531 20.8424C11.14 20.8687 12.2232 20.9176 13.3076 20.9464C15.4564 21.0054 17.5989 21.1094 19.7452 21.1433C20.2981 21.1533 20.851 21.1508 21.4039 21.1508C21.5957 21.1508 21.7887 21.1533 21.9805 21.1533C22.3416 21.1558 22.7014 21.1583 23.0625 21.1458C23.6592 21.127 24.1582 20.6619 24.1582 20.0501C24.1582 19.4558 23.6592 18.9468 23.0625 18.9544ZM5.53731 15.1419C5.52728 14.4913 5.56363 13.8419 5.57617 13.1912C5.5862 12.5242 5.61503 11.8598 5.64387 11.1916C5.70655 9.80627 5.69778 8.42221 5.71658 7.03689C5.7216 6.59058 5.99615 6.19944 6.38605 6.03144C6.57786 5.77569 6.86746 5.59642 7.20595 5.59893C8.01207 5.60394 8.81567 5.61397 9.62179 5.62525C11.7656 5.65158 13.9056 5.63277 16.0494 5.61773C17.1037 5.6077 18.1556 5.59516 19.2112 5.58388C19.5233 5.57887 19.8342 5.5726 20.1464 5.5726C20.332 5.5726 20.5175 5.57511 20.7043 5.58137C20.94 5.5889 21.1794 5.6077 21.4151 5.62776C21.7123 5.65409 22.0144 5.68167 22.299 5.76692C22.7553 5.90608 23.0499 6.32606 23.0449 6.78866C23.1966 6.97922 23.2994 7.21241 23.3157 7.47443C23.3859 8.67545 23.3985 9.87647 23.401 11.0762C23.401 12.2384 23.4248 13.4006 23.4135 14.5615C23.406 15.1444 22.9333 15.6321 22.3441 15.6384C22.1673 15.9618 21.8351 16.1925 21.4452 16.1925C20.871 16.1925 20.2981 16.1825 19.7227 16.1825C17.6328 16.1775 15.5404 16.18 13.4505 16.18C11.2014 16.18 8.94982 16.2063 6.70197 16.1674C6.66185 16.1724 6.62675 16.1912 6.58538 16.1912C6.00994 16.195 5.54733 15.7149 5.53731 15.1419ZM7.87792 7.67502C7.81649 9.79875 7.72623 11.92 7.67357 14.0424C8.02962 14.0525 8.38441 14.0625 8.74045 14.0713C10.898 14.1227 13.0544 14.1227 15.2119 14.1227C16.2888 14.1227 17.362 14.1177 18.4389 14.1177C19.3779 14.1177 20.3182 14.1039 21.2584 14.1227C21.2672 13.1072 21.2772 12.093 21.2735 11.0787C21.2672 9.95545 21.207 8.83717 21.1318 7.71764C20.8008 7.69883 20.4711 7.68254 20.1389 7.68128C18.0854 7.66373 16.0344 7.6374 13.9846 7.63991C13.5784 7.64242 13.1735 7.63991 12.7673 7.63991C12.0928 7.6374 11.4183 7.6349 10.7463 7.64242C9.79103 7.65245 8.83448 7.66499 7.87792 7.67502ZM35.2081 16.8921C35.2031 17.9765 35.2307 19.0622 35.2257 20.1479C35.2231 20.6832 35.2081 21.2223 35.1743 21.7551C35.1379 22.2954 35.0702 22.832 35.0213 23.3698C34.9724 23.9014 34.9511 24.4342 34.9072 24.9645C34.8583 25.5662 34.7656 26.1705 34.6364 26.7623C34.5311 27.2449 34.4271 27.7389 34.2541 28.2015C34.1349 28.5136 34.0133 28.8296 33.8566 29.1242C33.7501 29.321 33.6222 29.5091 33.5006 29.6984C33.2549 30.0757 32.8261 30.2726 32.4024 30.2049C32.2256 30.4393 31.9536 30.596 31.6364 30.6173C31.1449 30.6512 30.6522 30.6662 30.1583 30.6925C29.6518 30.7176 29.1428 30.7464 28.6363 30.749C27.6284 30.7565 26.6217 30.754 25.6137 30.7703C24.617 30.7878 23.6216 30.8217 22.6249 30.8292C20.5639 30.8442 18.5016 30.8781 16.4405 30.8555C14.3582 30.8329 12.2758 30.7853 10.196 30.7678C8.18006 30.754 6.13531 30.6324 4.13068 30.8881C3.97397 30.9094 3.81726 30.9307 3.66055 30.9521C3.63798 30.9558 3.61667 30.9596 3.5941 30.9633C3.40856 31.0122 3.22427 31.0122 3.03873 30.9633C2.98482 30.947 2.94595 30.9032 2.89581 30.8806C2.65886 30.9132 2.41314 30.8856 2.20503 30.7627C1.94677 30.6098 1.81263 30.3904 1.71108 30.1171C1.55061 29.6984 1.43402 29.2596 1.30614 28.8283C1.17701 28.3845 1.05791 27.937 0.975172 27.4844C0.869863 26.9027 0.782105 26.316 0.704377 25.7292C0.684318 25.649 0.673035 25.5662 0.671782 25.4835C0.615366 25.0497 0.563966 24.6147 0.512565 24.1809C0.390958 23.1341 0.33705 22.0885 0.298186 21.0367C0.222965 18.9443 0.184101 16.8469 0.186609 14.7533C0.189116 12.5982 0.1327 10.4419 0.152759 8.28681C0.162789 7.17605 0.194131 6.0678 0.220458 4.95704C0.250546 3.80115 0.26559 2.64526 0.296932 1.48812C0.298186 1.44925 0.316991 1.41415 0.320752 1.37654C0.295678 1.28377 0.263083 1.19475 0.263083 1.09446C0.263083 0.522784 0.744495 0 1.32495 0C1.33498 0 1.34626 0 1.35629 0C1.96558 0.0200588 2.57612 0.0413715 3.18541 0.0639377C3.67559 0.0802355 4.16704 0.077728 4.65722 0.102802C5.68273 0.151695 6.70072 0.270794 7.72623 0.292107C8.76427 0.314673 9.80106 0.325956 10.8366 0.325956C12.9365 0.325956 15.0327 0.292107 17.1326 0.264526C19.2438 0.235691 21.3562 0.145427 23.4674 0.117846C24.4804 0.105309 25.4934 0.0839964 26.5076 0.0789817C27.4604 0.0739669 28.4169 0.0401178 29.3697 0.0689524C29.9151 0.0865038 30.3727 0.512754 30.3727 1.07315C30.3727 1.30884 30.2711 1.53325 30.1207 1.71378C30.1269 1.7564 30.147 1.79401 30.1495 1.83664C30.2235 2.93611 30.2348 4.03183 30.2348 5.1288C31.5248 5.13632 32.8161 5.16139 34.1074 5.17017C34.5662 5.17268 34.9423 5.49487 35.0589 5.92112C35.1742 6.09162 35.257 6.28469 35.2495 6.50157C35.2231 7.39043 35.1442 8.27929 35.1228 9.16815C35.1028 10.0282 35.084 10.8882 35.1153 11.747C35.1467 12.5995 35.1981 13.4495 35.2156 14.302C35.2319 15.1645 35.2131 16.027 35.2081 16.8921ZM28.704 28.8308C28.8996 28.8221 29.0952 28.8095 29.2895 28.7957C28.9272 28.3695 28.6 27.9232 28.3743 27.4092C28.2527 27.1346 28.1311 26.8488 28.0672 26.5491C28.002 26.2445 27.9631 25.9336 27.9355 25.6189C27.9318 25.5738 27.9355 25.5299 27.9343 25.4848C27.9004 25.3243 27.8891 25.1588 27.9242 24.9896C27.9343 24.6147 27.8866 24.2336 27.8653 23.8638C27.8427 23.5127 27.834 23.1617 27.8365 22.8119C27.839 22.0371 27.8603 21.2624 27.8753 20.4863C27.9067 18.9443 27.9267 17.4036 27.9318 15.8615C27.9343 14.7019 27.9318 13.5435 27.9543 12.3863C27.9744 11.2655 28.0546 10.1485 28.0734 9.03024C28.0947 7.83674 28.0935 6.64324 28.0734 5.44974C28.0546 4.31767 27.9769 3.18936 27.8916 2.05979C27.4441 2.05603 26.9965 2.03472 26.5502 2.04224C25.551 2.05854 24.5531 2.0786 23.5539 2.0786C22.4845 2.0786 21.4151 2.12749 20.3457 2.17638C19.3039 2.22528 18.2609 2.23531 17.2141 2.24659C16.1597 2.25913 15.1079 2.28796 14.0523 2.31429C12.9904 2.34312 11.9286 2.32933 10.8667 2.32933C9.82864 2.32933 8.79185 2.33686 7.7513 2.34187C7.24481 2.34187 6.73331 2.34438 6.22683 2.30551C5.71282 2.26414 5.20383 2.20146 4.68731 2.18641C4.18835 2.17262 3.68562 2.19394 3.18666 2.19895C2.93843 2.2002 2.6902 2.19394 2.44198 2.19268C2.34544 4.2111 2.19124 6.22702 2.1599 8.2492C2.12856 10.3291 2.22383 12.4089 2.24264 14.4888C2.2627 16.6075 2.26521 18.7287 2.34795 20.8462C2.38932 21.8842 2.4332 22.921 2.54979 23.954C2.57863 24.2048 2.61248 24.453 2.64507 24.7037C2.66513 24.8328 2.67892 24.9645 2.69647 25.0961C2.70901 25.1914 2.72531 25.2842 2.73408 25.3769C2.83939 26.1367 2.95097 26.9039 3.15406 27.6461C3.2694 28.0673 3.4236 28.4785 3.56903 28.891C4.78008 28.7531 5.99364 28.7719 7.21222 28.7719C9.28706 28.7719 11.3619 28.8446 13.438 28.8835C15.5153 28.9223 17.5977 28.9274 19.6775 28.9223C20.1088 28.9223 20.5426 28.9223 20.9751 28.9223C21.5518 28.9223 22.1322 28.9249 22.7114 28.9173C23.7294 28.9073 24.7474 28.8609 25.7654 28.8496C26.1327 28.8471 26.5038 28.8496 26.8711 28.8496C27.4842 28.8546 28.0922 28.8597 28.704 28.8308ZM33.0593 13.2501C33.0468 12.6847 33.0104 12.1218 33.0129 11.5577C33.0154 11.0349 33.0204 10.5083 33.0254 9.98429C33.0292 9.04905 33.0493 8.11631 33.0643 7.18232C32.7772 7.18232 32.4901 7.18357 32.2018 7.18859C31.5449 7.20113 30.8867 7.21241 30.2272 7.21742C30.2235 7.98467 30.2185 8.75318 30.1946 9.52043C30.1708 10.3002 30.1307 11.0762 30.1169 11.8535C30.0969 13.0157 30.1094 14.1778 30.1119 15.3387C30.1144 16.462 30.1144 17.5841 30.1345 18.7049C30.152 19.8031 30.142 20.8963 30.1269 21.9958C30.1219 22.5123 30.1069 23.0313 30.1119 23.5491C30.1169 23.8349 30.1219 24.117 30.1382 24.4016C30.1483 24.5307 30.1583 24.6573 30.1696 24.7865C30.1921 25.0497 30.1771 25.2879 30.1257 25.5537C30.1081 25.6427 30.0555 25.7117 30.0141 25.7894C30.0542 25.9699 30.0931 26.1492 30.1583 26.3247C30.2736 26.5629 30.4078 26.7836 30.5632 26.9979C30.7688 27.2524 30.9845 27.4982 31.2314 27.7125C31.4533 27.863 31.6828 27.9896 31.931 28.0974C31.9335 28.0987 31.936 28.1012 31.9385 28.1024C31.9799 28.0222 32.0313 27.947 32.0689 27.8642C32.3309 27.1672 32.4763 26.4275 32.5904 25.6941C32.6456 25.2415 32.6807 24.789 32.7095 24.3326C32.7409 23.8312 32.7998 23.3372 32.8537 22.837C32.9653 21.7989 33.0117 20.7647 33.0041 19.7191C32.9866 17.564 33.1057 15.4064 33.0593 13.2501Z" fill="#775DDE"/>
</svg>
