<svg width="18" height="18" viewBox="0 0 18 18" fill="none" xmlns="http://www.w3.org/2000/svg">
<g clip-path="url(#clip0_783_2482)">
<path d="M14.0159 7.62889C13.9062 7.66517 13.7866 7.65716 13.6827 7.60657C13.5788 7.55598 13.4988 7.46682 13.4596 7.35807L12.8202 5.50533L10.5417 10.1857C10.4909 10.2899 10.4008 10.3697 10.2912 10.4075C10.1816 10.4453 10.0615 10.4381 9.95718 10.3874L8.2567 9.555L6.14603 13.8812C6.1222 13.9349 6.08779 13.9833 6.04486 14.0234C6.00193 14.0635 5.95137 14.0945 5.89617 14.1147C5.84098 14.1348 5.7823 14.1437 5.72363 14.1406C5.66495 14.1376 5.60749 14.1228 5.55466 14.0971C5.50184 14.0714 5.45473 14.0353 5.41616 13.9909C5.37759 13.9466 5.34833 13.895 5.33015 13.8391C5.31196 13.7833 5.30521 13.7243 5.31031 13.6658C5.3154 13.6072 5.33223 13.5503 5.3598 13.4985L7.66184 8.77912C7.68426 8.72572 7.71844 8.67807 7.76183 8.63971C7.84972 8.56618 7.9616 8.52757 8.07613 8.53122C8.13556 8.53403 8.19365 8.54978 8.24634 8.57738L9.94491 9.40428L11.9615 5.25247L10.3073 5.82344C10.1976 5.8613 10.0774 5.85403 9.97303 5.80324C9.8687 5.75245 9.78882 5.6623 9.75097 5.55262C9.71311 5.44294 9.72037 5.32271 9.77116 5.21838C9.82195 5.11406 9.9121 5.03418 10.0218 4.99632L12.7788 4.04471C12.8886 4.00843 13.0081 4.01644 13.1121 4.06703C13.216 4.11762 13.296 4.20678 13.3351 4.31553L14.2772 7.04502C14.2997 7.10039 14.3107 7.15973 14.3096 7.21947C14.3086 7.2792 14.2954 7.33811 14.271 7.39265C14.2466 7.44718 14.2114 7.49622 14.1676 7.53682C14.1238 7.57741 14.0722 7.60873 14.0159 7.62889Z" fill="#2BCE72" stroke="#2BCE72"/>
</g>
<defs>
<clipPath id="clip0_783_2482">
<rect width="14" height="14" fill="white" transform="matrix(0.945278 -0.326266 -0.326266 -0.945278 4.56787 17.8015)"/>
</clipPath>
</defs>
</svg>
