<svg width="20" height="20" viewBox="0 0 20 20" fill="none" xmlns="http://www.w3.org/2000/svg">
<path d="M10 12.5V14.5M4.375 8.0288C4.90535 8 5.55916 8 6.4 8H13.6C14.4408 8 15.0947 8 15.625 8.0288M4.375 8.0288C3.71314 8.0647 3.24358 8.1455 2.84278 8.327C2.20773 8.6146 1.69143 9.0735 1.36785 9.638C1 10.2798 1 11.1198 1 12.8V14.2C1 15.8802 1 16.7202 1.36785 17.362C1.69143 17.9265 2.20773 18.3854 2.84278 18.673C3.56473 19 4.50982 19 6.4 19H13.6C15.4902 19 16.4352 19 17.1572 18.673C17.7923 18.3854 18.3086 17.9265 18.6321 17.362C19 16.7202 19 15.8802 19 14.2V12.8C19 11.1198 19 10.2798 18.6321 9.638C18.3086 9.0735 17.7923 8.6146 17.1572 8.327C16.7564 8.1455 16.2868 8.0647 15.625 8.0288M4.375 8.0288V6C4.375 3.23858 6.8934 1 10 1C13.1066 1 15.625 3.23858 15.625 6V8.0288" stroke="#775DDE" stroke-width="1.53947" stroke-linecap="round" stroke-linejoin="round"/>
</svg>
