<svg width="13" height="13" viewBox="0 0 13 13" fill="none" xmlns="http://www.w3.org/2000/svg">
<g clip-path="url(#clip0_783_1773)">
<path d="M12.4582 6.50008C12.4582 9.79076 9.79052 12.4584 6.49984 12.4584C3.20914 12.4584 0.541504 9.79076 0.541504 6.50008C0.541504 3.20939 3.20914 0.541748 6.49984 0.541748C9.79052 0.541748 12.4582 3.20939 12.4582 6.50008ZM1.62854 6.50008C1.62854 9.19043 3.80949 11.3714 6.49984 11.3714C9.19019 11.3714 11.3712 9.19043 11.3712 6.50008C11.3712 3.80974 9.19019 1.62878 6.49984 1.62878C3.80949 1.62878 1.62854 3.80974 1.62854 6.50008Z" fill="#775DDE"/>
<path d="M6.50016 2.70825C6.201 2.70825 5.9585 2.95076 5.9585 3.24992V6.75271C5.9585 6.75271 5.9585 6.89393 6.02713 7.00015C6.07306 7.09023 6.14467 7.1685 6.23875 7.22283L8.74115 8.66761C9.00022 8.81717 9.33151 8.72839 9.48106 8.46931C9.63062 8.21023 9.54189 7.87895 9.28281 7.72939L7.04183 6.43557V3.24992C7.04183 2.95077 6.79933 2.70825 6.50016 2.70825Z" fill="#775DDE"/>
</g>
<defs>
<clipPath id="clip0_783_1773">
<rect width="13" height="13" fill="white"/>
</clipPath>
</defs>
</svg>
