<svg width="41" height="41" viewBox="0 0 41 41" fill="none" xmlns="http://www.w3.org/2000/svg">
<g clip-path="url(#clip0_1584_252)">
<path d="M20.7218 16.1226C23.0583 16.1226 24.9425 14.2383 24.9425 11.9019C24.9425 9.56549 23.0732 7.68115 20.7218 7.68115C18.3852 7.68115 16.501 9.56549 16.501 11.9019C16.516 14.2535 18.4003 16.1226 20.7218 16.1226ZM10.9236 28.3478H3.34127C0.884257 28.3478 0.748551 24.5944 3.38651 24.5944H9.9587L13.7272 19.0471C14.8427 17.5246 16.109 16.801 17.9027 16.801H23.5254C25.3193 16.801 26.5854 17.4643 27.7009 19.0471L31.4845 24.5944H38.1021C40.7552 24.5944 40.5893 28.3478 38.1926 28.3478H30.6103C30.0073 28.3478 29.2837 28.1367 28.8617 27.4887L25.9674 23.3584L25.9523 33.6993H15.5814L15.5663 23.3584L12.672 27.4887C12.25 28.1217 11.5265 28.3478 10.9236 28.3478Z" fill="#775DDE"/>
<path d="M9.10437 17.7003V22.2121H1.2959V14.4037H7.687L6.56843 15.5192H2.41139V21.0966H7.98887V18.8126L9.10437 17.7003ZM10.2199 15.0194L9.43225 14.2295L5.20506 18.4433L3.89954 17.1378L3.11085 17.9265L5.20398 20.0198L10.2199 15.0194Z" fill="#775DDE"/>
<path d="M40.0689 15.2639L39.3719 18.1985C39.2447 18.734 38.7716 19.108 38.2212 19.108H33.9905L34.157 19.8018C34.2208 20.0679 34.4567 20.254 34.7304 20.254H38.9231V20.8454H34.7304C34.182 20.8454 33.7098 20.4731 33.5818 19.9399L32.2843 14.5334C32.2205 14.2672 31.9846 14.0812 31.7109 14.0812H30.6064V13.4897H31.7109C32.2591 13.4897 32.7314 13.8621 32.8594 14.3954L33.0679 15.2641H40.0689V15.2639ZM34.1049 22.1021C34.1049 22.5717 34.4856 22.9522 34.955 22.9522C35.4245 22.9522 35.8051 22.5716 35.8051 22.1021C35.8051 21.6327 35.4245 21.2521 34.955 21.2521C34.4856 21.2521 34.1049 21.6326 34.1049 22.1021ZM37.2099 22.1021C37.2099 22.5717 37.5905 22.9522 38.06 22.9522C38.5294 22.9522 38.91 22.5716 38.91 22.1021C38.91 21.6327 38.5294 21.2521 38.06 21.2521C37.5905 21.2521 37.2099 21.6326 37.2099 22.1021Z" fill="#775DDE"/>
</g>
<defs>
<clipPath id="clip0_1584_252">
<rect width="39.3885" height="39.3885" fill="white" transform="translate(0.988281 0.988281)"/>
</clipPath>
</defs>
</svg>
