<svg width="78" height="79" viewBox="0 0 78 79" fill="none" xmlns="http://www.w3.org/2000/svg">
<path fill-rule="evenodd" clip-rule="evenodd" d="M22.75 13.1943C13.7754 13.1943 6.5 20.4697 6.5 29.4443V48.9443C6.5 57.9189 13.7754 65.1943 22.75 65.1943H55.25C64.2245 65.1943 71.5 57.9189 71.5 48.9443V29.4443C71.5 20.4697 64.2245 13.1943 55.25 13.1943H22.75ZM24.7804 26.9065C23.3788 25.7852 21.3336 26.0125 20.2123 27.4141C19.091 28.8157 19.3183 30.8609 20.7199 31.9822L28.8488 38.4852C34.7838 43.2331 43.2165 43.2331 49.1514 38.4852L57.2803 31.9822C58.682 30.8609 58.9092 28.8157 57.7879 27.4141C56.6667 26.0125 54.6214 25.7852 53.2197 26.9065L45.0908 33.4097C41.5301 36.2583 36.4702 36.2583 32.9095 33.4097L24.7804 26.9065Z" fill="white"/>
</svg>
