<svg width="39" height="36" viewBox="0 0 39 36" fill="none" xmlns="http://www.w3.org/2000/svg">
<path fill-rule="evenodd" clip-rule="evenodd" d="M38.1818 23.7116L30.9726 27.8061V35.9985L34.3144 34.0995C34.3247 34.0945 34.3332 34.0894 34.3435 34.0844L38.182 31.904V23.7099L38.1818 23.7116ZM25.7296 25.4269V27.6865L26.7676 28.2965V26.015L25.7296 25.4252V25.4269ZM33.5334 20.4762L34.3127 20.9194V20.9177L34.5748 21.0659L27.3621 25.1622L26.3207 24.5707L33.5334 20.4745L33.5334 20.4762ZM25.2758 23.9776L23.2341 22.8184L30.4468 18.7221L32.4885 19.8814L25.2758 23.9776ZM27.8177 26.613L29.9211 27.8076V36L22.7119 31.9055V23.7131L24.6799 24.8302V27.9778H24.6817C24.6817 28.153 24.7724 28.3232 24.9369 28.4193L26.9889 29.6274C27.0745 29.6881 27.1807 29.7235 27.2937 29.7235C27.5832 29.7235 27.8196 29.4926 27.8196 29.2062V26.6113L27.8177 26.613ZM35.6232 21.6623L37.6598 22.8182L30.4471 26.9144L28.4105 25.7585L35.6232 21.6623ZM16.2885 4.99113L9.07934 9.08567V17.2798L12.4211 15.3808C12.4314 15.3757 12.4399 15.3707 12.4502 15.3656L16.2887 13.1852L16.2885 4.99113ZM3.83634 6.70647V8.96774L4.87433 9.57772V7.29454L3.83634 6.70478V6.70647ZM11.6436 1.75576L12.3955 2.18207C12.4041 2.18712 12.4127 2.19386 12.4229 2.19892L12.685 2.3472L5.47232 6.44342L4.43091 5.85199L11.6454 1.75408L11.6436 1.75576ZM3.38075 5.25887L1.34077 4.09959L4.68595 2.19894V2.19726L8.55355 0L10.5952 1.15928L3.38079 5.25719L3.38075 5.25887ZM5.92433 7.89085L8.02771 9.0855V17.2796L4.68595 15.3806V15.3823L0.818359 13.185V4.99096L2.78642 6.10809V9.25735H2.78814C2.78814 9.43259 2.87892 9.60278 3.04335 9.69881L5.09534 10.907C5.18098 10.9676 5.28718 11.003 5.40023 11.003C5.6897 11.003 5.92606 10.7722 5.92606 10.4857V7.88915L5.92433 7.89085ZM13.7299 2.94187L15.7681 4.09946L8.55543 8.19569L6.51717 7.0381L13.7299 2.94187ZM30.6765 13.3264C30.793 13.0652 31.103 12.9473 31.3685 13.0619C31.634 13.1764 31.7539 13.4814 31.6374 13.7426L30.6577 15.9297C30.5412 16.1909 30.2312 16.3088 29.9657 16.1942L27.7424 15.2304C27.4769 15.1158 27.357 14.8109 27.4735 14.5497C27.59 14.2885 27.9 14.1706 28.1655 14.2851L29.3662 14.8058C28.7153 12.9355 27.5317 11.3094 25.9902 10.1031C24.2105 8.70962 21.9565 7.87554 19.5019 7.87554C19.2124 7.87554 18.9761 7.6447 18.9761 7.35826C18.9761 7.07349 19.2107 6.84097 19.5019 6.84097C22.2013 6.84097 24.6831 7.75929 26.6427 9.29433C28.2716 10.5699 29.5391 12.2734 30.2704 14.233L30.6781 13.3247L30.6765 13.3264ZM8.36495 23.0876C8.24848 23.3488 7.93845 23.4667 7.67298 23.3522C7.40748 23.2376 7.28758 22.9326 7.40406 22.6714L8.38382 20.4843C8.50029 20.2231 8.81032 20.1052 9.07579 20.2198L11.2991 21.1836C11.5646 21.2982 11.6845 21.6032 11.568 21.8643C11.4515 22.1255 11.1415 22.2435 10.876 22.1289L9.69243 21.615C10.3638 23.4398 11.5457 25.0237 13.0701 26.1999C14.8395 27.5647 17.0713 28.3786 19.4966 28.3786C19.7861 28.3786 20.0225 28.6094 20.0225 28.8959C20.0225 29.1806 19.7878 29.4131 19.4966 29.4131C16.8297 29.4131 14.3751 28.5167 12.4243 27.012C10.8005 25.7601 9.52782 24.0852 8.77932 22.1558L8.36139 23.0876L8.36495 23.0876Z" fill="#775DDE"/>
</svg>
