<svg width="47" height="31" viewBox="0 0 47 31" fill="none" xmlns="http://www.w3.org/2000/svg">
<path fill-rule="evenodd" clip-rule="evenodd" d="M12.0756 13.3568L15.4003 14.644L4.75661 18.7509L1.41016 17.4664L12.0756 13.3568ZM24.1188 0.132561L26.9795 1.2349L16.3359 5.34455L13.0052 4.06002L23.1789 0.132527C23.4691 0.0176732 23.8286 0.0177069 24.1188 0.132561ZM27.9094 1.59531L17.2657 5.70631L19.8541 6.70304L30.4977 2.59609L27.9094 1.58219V1.59531ZM31.4474 2.94717L20.782 7.07811L23.6487 8.16991L34.2923 4.06025L31.4276 2.95528L31.4474 2.94717ZM34.7681 4.60134L24.1189 8.70693V16.9262L34.7681 12.823V4.60134ZM23.1788 16.9266V8.70727L20.324 7.60493V9.44393C20.324 9.6578 20.1522 9.85584 19.8739 9.96278C19.5975 10.0697 19.2559 10.0684 18.9795 9.96146L16.5038 9.00566L16.5018 9.00434C16.1069 8.85516 15.8661 8.57397 15.87 8.27163V5.90588L12.5295 4.60153V12.8235L23.1788 16.9266ZM16.7999 6.24385L19.3882 7.25774V9.39642L16.9677 8.46306V8.46438C16.8591 8.42477 16.7959 8.34952 16.7999 8.26767L16.7999 6.24385ZM35.222 13.3411L38.5526 14.6283L27.909 18.7511L24.5843 17.4666L35.2219 13.3569L35.222 13.3411ZM39.4885 14.9874L42.0709 16.0013L31.457 20.1069L28.8687 19.093L39.4886 15.0029L39.4885 14.9874ZM43.0264 16.3392L45.8872 17.4666L35.2218 21.5763L32.361 20.4713L43.0062 16.3617L43.0264 16.3392ZM46.3512 17.9855L35.7373 22.0911L35.7393 30.333L45.8871 26.4069C46.1793 26.296 46.359 26.0874 46.3531 25.8617V18.008L46.3512 17.9855ZM34.7679 30.333V22.1137L31.9071 21.0114V22.8345C31.9091 23.0484 31.7393 23.2465 31.4629 23.3534C31.1845 23.4603 30.8429 23.459 30.5685 23.3507L28.0928 22.3949H28.0908C27.694 22.2471 27.4492 21.9659 27.4551 21.6609V19.2952L24.1304 18.0106L24.1284 26.2235L34.7679 30.333ZM28.3789 19.654V21.662V21.6607C28.3749 21.7425 28.4381 21.8191 28.5467 21.8574L30.9632 22.7907L30.9612 20.6508L28.3789 19.654ZM16.3357 15.0029L5.69048 19.1126L8.27879 20.1265L18.9225 16.0037L16.3342 14.9898L16.3357 15.0029ZM19.8736 16.3548L9.20821 20.4712L12.0749 21.5762L22.6888 17.4665L19.828 16.3616L19.8736 16.3548ZM23.1983 18.0011L12.5294 22.1134V30.3327L23.1786 26.2231V18.0075L23.1983 18.0011ZM11.605 30.3327V22.1134L8.74419 21.0111V22.8342C8.74221 23.0468 8.57242 23.2435 8.29602 23.3504C8.01961 23.456 7.68001 23.4573 7.40365 23.3504L4.9476 22.3946C4.55076 22.2454 4.30794 21.9642 4.30991 21.6606V19.2948L0.985194 18.0103V25.8612C0.971374 26.0804 1.13327 26.2889 1.40967 26.4065L11.605 30.3327ZM5.22605 19.6537L7.80845 20.6504V22.7891L5.39193 21.8558V21.8571C5.28531 21.8188 5.22016 21.7422 5.22609 21.6604L5.22605 19.6537Z" fill="#775DDE"/>
</svg>
