<svg width="32" height="32" viewBox="0 0 32 32" fill="none" xmlns="http://www.w3.org/2000/svg">
<path d="M10.5405 19.4148C16.6116 17.5937 21.7573 13.813 24.8337 8.58245L27.6649 10.0412L26.0082 4.00488L20.1288 6.15824L22.9912 7.63314C20.1857 12.4142 15.4825 15.8664 9.933 17.5219C9.45905 17.6024 9.09814 18.0146 9.09814 18.5113C9.09814 19.0658 9.54786 19.5153 10.1024 19.5153C10.2596 19.5153 10.4082 19.4791 10.5405 19.4148Z" fill="#775DDE"/>
<path d="M26.8817 10.6238C26.2667 10.6238 25.7681 11.185 25.7681 11.8773V26.7416C25.7681 27.4339 26.2667 27.9951 26.8817 27.9951C27.4968 27.9951 27.9953 27.4339 27.9953 26.7416V11.8773C27.9953 11.185 27.4968 10.6238 26.8817 10.6238Z" fill="#775DDE"/>
<path d="M21.4408 15.377C20.8257 15.377 20.3271 15.9383 20.3271 16.6306V26.7415C20.3271 27.4338 20.8258 27.995 21.4408 27.995C22.0558 27.995 22.5544 27.4338 22.5544 26.7415V16.6305C22.5544 15.9383 22.0558 15.377 21.4408 15.377Z" fill="#775DDE"/>
<path d="M15.9999 19.1008C15.3848 19.1008 14.8862 19.6621 14.8862 20.3544V26.7416C14.8862 27.4339 15.3848 27.9951 15.9999 27.9951C16.6149 27.9951 17.1135 27.4339 17.1135 26.7416V20.3544C17.1135 19.6621 16.6149 19.1008 15.9999 19.1008Z" fill="#775DDE"/>
<path d="M10.5589 21.4836C9.94395 21.4836 9.44531 22.0449 9.44531 22.7372V26.7417C9.44531 27.434 9.94395 27.9952 10.5589 27.9952C11.174 27.9952 11.6726 27.434 11.6726 26.7417V22.7372C11.6726 22.0449 11.174 21.4836 10.5589 21.4836Z" fill="#775DDE"/>
<path d="M5.1185 23.6165C4.50339 23.6165 4.00488 24.1777 4.00488 24.87V26.7416C4.00488 27.4339 4.50352 27.9951 5.1185 27.9951C5.73347 27.9951 6.23214 27.4339 6.23214 26.7416V24.87C6.23214 24.1777 5.73347 23.6165 5.1185 23.6165Z" fill="#775DDE"/>
<path d="M5.1185 18.0476C4.50339 18.0476 4.00488 18.6088 4.00488 19.3011V19.5228C4.00488 20.2151 4.50352 20.7763 5.1185 20.7763C5.73347 20.7763 6.23214 20.2151 6.23214 19.5228V19.3011C6.23214 18.6088 5.73347 18.0476 5.1185 18.0476Z" fill="#775DDE"/>
</svg>
