<svg width="39" height="25" viewBox="0 0 39 25" fill="none" xmlns="http://www.w3.org/2000/svg">
<path fill-rule="evenodd" clip-rule="evenodd" d="M35.7201 12.5522H36.7216C37.0572 12.5522 37.3284 12.8234 37.3284 13.159C37.3284 13.4946 37.0572 13.7658 36.7216 13.7658H35.7201V12.5522ZM35.7201 10.2815H37.4814C37.6448 10.278 37.8048 10.3389 37.9213 10.4536C38.0395 10.5684 38.1056 10.7248 38.1056 10.8883C38.1056 11.0535 38.0395 11.2099 37.9213 11.3229C37.8048 11.4377 37.6448 11.5003 37.4814 11.4951H35.7201V10.2815ZM35.7201 8.01075H38.2412V8.01249C38.4064 8.00728 38.5646 8.06987 38.6811 8.18288C38.7993 8.29763 38.8654 8.45412 38.8654 8.61929C38.8654 8.78273 38.7993 8.93921 38.6811 9.05396C38.5646 9.16871 38.4064 9.22956 38.2412 9.22609H35.7201V8.01075ZM10.2674 19.526C10.2014 19.4582 10.1301 19.3956 10.0553 19.3347C8.93389 18.4324 7.29779 18.5871 6.3641 19.6842C5.43215 20.7813 5.54168 22.4209 6.61273 23.3841C7.68373 24.3456 9.32682 24.2795 10.3178 23.2346C11.3089 22.1896 11.288 20.5466 10.2692 19.5277L10.2674 19.526ZM30.8516 19.526H30.8533C30.7855 19.4582 30.7142 19.3956 30.6395 19.3347C29.5198 18.4324 27.8837 18.5871 26.95 19.6842C26.018 20.7795 26.1293 22.4191 27.1986 23.3824C28.2696 24.3439 29.9127 24.2778 30.902 23.2328C31.8931 22.1896 31.8722 20.5466 30.855 19.5277L30.8516 19.526ZM5.18884 11.4322H10.9075V6.75334H8.97407C8.85236 6.7516 8.73239 6.76725 8.61764 6.80376C8.50289 6.84375 8.39509 6.90113 8.29772 6.97589L5.64278 8.9545C5.35068 9.1614 5.18028 9.5022 5.19074 9.86037V11.4321L5.18884 11.4322ZM21.5534 0.000266574V5.09133L24.2397 3.03795C24.457 2.86582 24.7648 2.86234 24.9839 3.031L27.6806 5.09306L27.6823 0.000656249L21.5534 0.000266574ZM34.1449 19.4681H32.3263C32.5627 19.8767 32.7227 20.3288 32.7957 20.7965H32.8566C33.5677 20.7947 34.1449 20.2175 34.1466 19.5064V19.4681L34.1449 19.4681ZM25.6252 19.4681H11.7421C11.9803 19.8767 12.1402 20.3288 12.215 20.7965H25.1541C25.2288 20.3288 25.3888 19.8784 25.6252 19.4681ZM15.1965 18.2528V1.13016C15.1982 0.505991 15.7024 0.00173589 16.3249 0H20.3378L20.3395 6.31821C20.3395 6.54772 20.4699 6.7581 20.6768 6.8607C20.882 6.96154 21.1289 6.93894 21.3114 6.79811L24.6149 4.2718L27.8871 6.77203V6.77377C28.0662 6.93025 28.3218 6.9685 28.5374 6.87113C28.7547 6.77203 28.8956 6.55643 28.8938 6.31823V1.61303e-05H33.0145C33.6386 0.00175514 34.1429 0.505962 34.1446 1.13017V8.01188L30.716 8.01015C30.3874 8.01884 30.1248 8.28833 30.1248 8.61695C30.1248 8.9473 30.3874 9.21508 30.716 9.22376H34.1464V10.2809H29.9544C29.6258 10.2896 29.365 10.5591 29.365 10.8877C29.365 11.2163 29.6258 11.4858 29.9544 11.4945H34.1446V12.5499L29.1947 12.5516C28.8591 12.5516 28.5879 12.8228 28.5879 13.1584C28.5879 13.494 28.8591 13.7652 29.1947 13.7652H34.1446V18.2527H31.2202C29.8762 17.2947 28.0714 17.2947 26.7273 18.2527L15.1965 18.2528ZM0.000289697 16.9453C1.18083 16.754 2.04847 15.7369 2.05368 14.5424V13.7861L0.683609 14.3773C0.26111 14.5459 -0.0101257 14.9597 0.000289697 15.4152V16.9453ZM3.26724 13.2645L4.70514 12.6455H11.5156C11.6773 12.6455 11.8321 12.583 11.9451 12.4682C12.0598 12.3552 12.1224 12.2004 12.1224 12.0388V6.75317H13.9828V18.2528H10.6376C9.54748 17.4756 8.13046 17.3174 6.89601 17.8355C5.65983 18.3537 4.78005 19.4734 4.57138 20.7965H0.000191854V18.1711C1.85537 17.9711 3.26367 16.4081 3.26715 14.5425L3.26724 13.2645Z" fill="#775DDE"/>
</svg>
