<svg width="23" height="22" viewBox="0 0 23 22" fill="none" xmlns="http://www.w3.org/2000/svg">
<g clip-path="url(#clip0_783_1784)">
<path d="M22.4756 4.94146L19.7432 1.20598C19.4703 0.834216 19.1065 0.530399 18.6828 0.320415C18.2591 0.110431 17.7881 0.000503988 17.3098 0L5.6902 0C5.21193 0.000503988 4.74087 0.110431 4.31717 0.320415C3.89346 0.530399 3.52968 0.834216 3.2568 1.20598L0.5244 4.94146C0.183642 5.40869 0.00077945 5.96283 0 6.53056L0 18.9647C0 19.7084 0.312109 20.4215 0.867667 20.9473C1.42322 21.4731 2.17672 21.7685 2.9624 21.7685H20.0376C20.8233 21.7685 21.5768 21.4731 22.1323 20.9473C22.6879 20.4215 23 19.7084 23 18.9647V6.53056C22.9992 5.96283 22.8164 5.40869 22.4756 4.94146ZM17.3098 2.17685C17.4166 2.17675 17.5219 2.20127 17.6165 2.2483C17.711 2.29533 17.7921 2.36345 17.8526 2.44678L19.5638 4.78908H12.6638V2.17685H17.3098ZM5.1474 2.44678C5.20791 2.36345 5.28896 2.29533 5.38354 2.2483C5.47811 2.20127 5.58337 2.17675 5.6902 2.17685H10.35V4.78908H3.45L5.1474 2.44678ZM20.7 18.9647C20.7006 19.0472 20.6839 19.129 20.6508 19.2053C20.6178 19.2817 20.569 19.351 20.5074 19.4093C20.4457 19.4677 20.3725 19.5138 20.2918 19.5451C20.2112 19.5764 20.1248 19.5923 20.0376 19.5917H2.9624C2.87524 19.5923 2.78883 19.5764 2.70819 19.5451C2.62755 19.5138 2.55428 19.4677 2.49265 19.4093C2.43102 19.351 2.38225 19.2817 2.34918 19.2053C2.3161 19.129 2.29939 19.0472 2.3 18.9647V7.51014C2.3 7.36581 2.36058 7.22739 2.46841 7.12533C2.57625 7.02327 2.7225 6.96593 2.875 6.96593H20.125C20.2775 6.96593 20.4238 7.02327 20.5316 7.12533C20.6394 7.22739 20.7 7.36581 20.7 7.51014V18.9647Z" fill="#775DDE"/>
<path d="M8.0499 9.14282H14.9499C15.7166 9.14282 16.0999 9.50563 16.0999 10.2312C16.0999 10.9569 15.7166 11.3197 14.9499 11.3197H8.0499C7.28324 11.3197 6.8999 10.9569 6.8999 10.2312C6.8999 9.50563 7.28324 9.14282 8.0499 9.14282Z" fill="#775DDE"/>
</g>
<defs>
<clipPath id="clip0_783_1784">
<rect width="23" height="21.7685" fill="white"/>
</clipPath>
</defs>
</svg>
