<svg width="41" height="31" viewBox="0 0 41 31" fill="none" xmlns="http://www.w3.org/2000/svg">
<path d="M18.0863 20.8469H13.2535C11.7719 20.8469 10.5561 21.6707 10.5561 22.6746V27.9917H20.7837V22.6746C20.7735 21.6707 19.5576 20.8469 18.0863 20.8469ZM6.64279 14.0967H1.06409V15.8483C1.06409 16.8106 2.22887 17.5999 3.64909 17.5999H4.06801C5.48822 17.5999 6.65301 16.8106 6.65301 15.8483V14.0967H6.64279ZM13.2432 14.0967H7.66453V15.8483C7.66453 16.8106 8.82932 17.5999 10.2495 17.5999H10.6684C12.0887 17.5999 13.2535 16.8106 13.2535 15.8483V14.0967H13.2432ZM19.8539 14.0967H14.2752V15.8483C14.2752 16.8106 15.44 17.5999 16.8602 17.5999H17.2791C18.6993 17.5999 19.8641 16.8106 19.8641 15.8483V14.0967H19.8539ZM26.4543 14.0967H20.8654V15.8483C20.8654 16.8106 22.0302 17.5999 23.4504 17.5999H23.8693C25.2895 17.5999 26.4543 16.8106 26.4543 15.8483V14.0967ZM39.6654 14.0967H34.0867V15.8483C34.0867 16.8106 35.2515 17.5999 36.6717 17.5999H37.0906C38.5109 17.5999 39.6757 16.8106 39.6757 15.8483V14.0967H39.6654ZM33.065 14.0967H27.4761V15.8483C27.4761 16.8106 28.6409 17.5999 30.0611 17.5999H30.48C31.9002 17.5999 33.065 16.8106 33.065 15.8483V14.0967ZM6.89823 13.4044L10.4334 8.77272H6.79605L1.57496 13.4044H6.89823ZM19.8539 8.7658H16.2165L14.5102 13.3975H19.8437V8.7658H19.8539ZM13.4578 13.4044L15.1641 8.77272H11.588L8.05279 13.4044H13.4578ZM26.0967 19.2199H32.0228C33.1467 19.2199 34.0663 19.843 34.0663 20.6046V24.6201C34.0663 25.3816 33.1467 26.0047 32.0228 26.0047H26.0967C24.9728 26.0047 24.0532 25.3816 24.0532 24.6201V20.6046C24.0532 19.843 24.9728 19.2199 26.0967 19.2199ZM28.5489 25.3193C28.5489 25.3124 28.5489 25.3124 28.5489 25.3055V22.9654H25.0954C25.0852 22.9654 25.075 22.9654 25.0648 22.9654V24.627C25.0648 25.0078 25.5246 25.3193 26.0967 25.3193H28.5489ZM33.0548 22.9654C33.0446 22.9654 33.0343 22.9654 33.0241 22.9654H29.5706V25.3055C29.5706 25.3124 29.5706 25.3193 29.5706 25.3193H32.0228C32.5848 25.3193 33.0548 25.0078 33.0548 24.627V22.9654ZM29.5706 19.9122C29.5706 19.9192 29.5706 19.9261 29.5706 19.933V22.2731H33.0241C33.0343 22.2731 33.0446 22.2731 33.0548 22.2731V20.6115C33.0548 20.2307 32.595 19.9122 32.0228 19.9122H29.5706ZM28.5489 19.9261C28.5489 19.9192 28.5489 19.9122 28.5489 19.9053H26.0967C25.5348 19.9053 25.0648 20.2169 25.0648 20.6046V22.2661C25.075 22.2661 25.0852 22.2661 25.0954 22.2661H28.5489V19.9261ZM2.38213 30.581H38.3372C39.5633 30.581 40.207 29.5633 39.318 28.9679C39.0626 28.7948 38.7152 28.6909 38.3372 28.6909H2.38213C1.15605 28.6909 0.51235 29.7017 1.39105 30.304C1.6567 30.4702 2.00409 30.581 2.38213 30.581ZM4.79344 27.9917H9.5241V22.6746C9.5241 21.29 11.1998 20.1546 13.2432 20.1546H18.0761C20.1195 20.1546 21.7952 21.29 21.7952 22.6746V27.9917H35.9259V18.2299C34.9348 18.0914 34.0765 17.6691 33.5656 17.0876C32.9322 17.8076 31.7674 18.2784 30.48 18.2784H30.0611C28.7737 18.2784 27.6089 17.8076 26.9754 17.0876C26.3317 17.8076 25.1772 18.2784 23.8898 18.2784H23.4709C22.1732 18.2784 21.0187 17.8076 20.3852 17.0876C19.7415 17.8076 18.5869 18.2784 17.2893 18.2784H16.8704C15.5728 18.2784 14.4182 17.8076 13.7848 17.0876C13.1411 17.8076 11.9865 18.2784 10.6889 18.2784H10.27C8.97236 18.2784 7.81779 17.8076 7.1741 17.0876C6.66323 17.6691 5.80496 18.0914 4.81388 18.2299V27.9917H4.79344ZM37.7854 1.75946C34.5567 -0.428285 29.3152 -0.428285 26.0763 1.75946C22.8476 3.94721 22.8476 7.49884 26.0763 9.69352C29.305 11.8813 34.5465 11.8813 37.7854 9.69352C41.0244 7.49884 41.0244 3.94721 37.7854 1.75946ZM24.9115 9.85275C24.4824 9.52043 24.1043 9.1535 23.7978 8.7658H20.8859V13.3975H26.2296L24.9115 9.85275ZM31.6243 12.0197C29.6217 11.9782 27.7724 11.5005 26.2806 10.7251L27.2615 13.3975H32.6767L31.6243 12.0197ZM36.6309 11.1682C35.4763 11.6251 34.1583 11.9228 32.7585 12.0059L33.8313 13.4044H39.1546L36.6309 11.1682ZM32.4417 8.10809V8.48195C32.4417 8.93888 31.42 8.93888 31.42 8.48195V8.10809C30.4187 7.97655 29.5706 7.4573 29.5706 6.75805C29.5706 6.30112 30.5924 6.30112 30.5924 6.75805C30.5924 7.37422 32.0739 7.69269 32.9117 7.22191C33.1263 7.09729 33.2693 6.93806 33.2693 6.75805C33.2693 5.60187 29.5706 6.59882 29.5706 4.688C29.5706 3.98875 30.4289 3.46951 31.42 3.34489V2.97103C31.42 2.5141 32.4417 2.5141 32.4417 2.97103V3.34489C33.443 3.46951 34.2911 3.99568 34.2911 4.688C34.2911 5.14494 33.2693 5.14494 33.2693 4.688C33.2693 4.07183 31.7878 3.76028 30.95 4.22414C30.7354 4.34876 30.5924 4.508 30.5924 4.688C30.5924 5.84419 34.2911 4.84724 34.2911 6.75805C34.2911 7.4573 33.443 7.97655 32.4417 8.10809Z" fill="#775DDE"/>
</svg>
