<svg width="32" height="32" viewBox="0 0 32 32" fill="none" xmlns="http://www.w3.org/2000/svg">
<path d="M6.03135 6.93433H9.05635V3.93433C9.05635 3.3812 9.50322 2.93433 10.0563 2.93433H22.0345C22.5845 2.93433 23.0313 3.3812 23.0345 3.9312L23.047 6.93433H26.0376C26.5907 6.93433 27.0376 7.3812 27.0376 7.93433V28.9437C27.0376 29.4968 26.5907 29.9437 26.0376 29.9437H14.0345C13.4813 29.9437 13.0345 29.4968 13.0345 28.9437C13.0345 28.3906 13.4813 27.9437 14.0345 27.9437H25.0376V8.93745H23.0563L23.0595 9.91558C23.0595 10.1812 22.9563 10.4343 22.7688 10.625C22.5813 10.8125 22.3282 10.9187 22.0626 10.9218L19.1813 10.9312L10.5251 10.9625H10.0595C9.79385 10.9625 9.54072 10.8562 9.35322 10.6718C9.16572 10.4843 9.05947 10.2281 9.05947 9.96245V8.93745H7.03447V19.9375C7.03447 20.4906 6.5876 20.9375 6.03447 20.9375C5.48135 20.9375 5.03447 20.4906 5.03447 19.9375V7.93745C5.03135 7.38433 5.48135 6.93433 6.03135 6.93433ZM11.0595 8.9562L21.0563 8.92183L21.0407 4.93745H11.0595V8.9562Z" fill="#775DDE"/>
<path d="M22.0078 14.9438H9.98281C9.42969 14.9438 8.98281 14.497 8.98281 13.9438V13.9345C8.98594 13.6157 9.13906 13.3313 9.37656 13.1501C9.54531 13.022 9.75469 12.9438 9.98281 12.9438H22.0078C22.5609 12.9438 23.0078 13.3907 23.0078 13.9438C23.0078 14.497 22.5609 14.9438 22.0078 14.9438ZM9.84063 18.9376C9.2875 18.9376 8.84063 18.4907 8.84063 17.9376C8.84063 17.3845 9.2875 16.9376 9.84063 16.9376H21.8625C22.4156 16.9376 22.8656 17.3876 22.8656 17.9376C22.8656 18.4907 22.4188 18.9376 21.8656 18.9376H9.84063ZM11.1759 26.7804L13.2494 25.5835V23.3901L11.3497 22.2932L9.45 23.3901V25.7842C9.45 25.976 9.29438 26.1317 9.1025 26.1317C8.91063 26.1317 8.755 25.976 8.755 25.7842V23.1895C8.755 23.0654 8.82125 22.9504 8.92875 22.8885L11.1759 21.5913C11.2287 21.5608 11.2887 21.5447 11.3497 21.5447C11.4107 21.5447 11.4706 21.5608 11.5234 21.5913L13.7706 22.8885C13.8234 22.9191 13.8673 22.9629 13.8978 23.0157C13.9283 23.0686 13.9443 23.1285 13.9444 23.1895V25.7842C13.9444 25.9082 13.8781 26.0232 13.7706 26.0851L11.5234 27.3823C11.4688 27.4138 11.4091 27.4288 11.35 27.4288C11.23 27.4288 11.1131 27.3667 11.0487 27.2551C10.9528 27.0888 11.0097 26.8763 11.1759 26.7804Z" fill="#775DDE"/>
<path d="M5.56207 24.8322L7.80926 23.535C7.97551 23.439 8.18801 23.4959 8.28395 23.6622C8.37988 23.8284 8.32301 24.0409 8.15676 24.1369L6.08332 25.334V27.5275L7.98301 28.6244L9.8827 27.5275V25.1334C9.8827 24.9415 10.0383 24.7859 10.2302 24.7859C10.4221 24.7859 10.5777 24.9415 10.5777 25.1334V27.7281C10.5777 27.8522 10.5114 27.9672 10.4039 28.029L8.15676 29.3262C8.10301 29.3572 8.04301 29.3728 7.98301 29.3728C7.92301 29.3728 7.86301 29.3572 7.80926 29.3262L5.56207 28.029C5.45457 27.9669 5.38832 27.8522 5.38832 27.7281V25.1334C5.38832 25.009 5.45457 24.8944 5.56207 24.8322ZM19.5089 23.2928C19.3846 23.4306 19.1727 23.4425 19.0349 23.3181C18.8971 23.1937 18.8852 22.9819 19.0096 22.844C19.4414 22.365 20.0583 22.0894 20.7039 22.0894C21.9596 22.0894 22.9814 23.1112 22.9814 24.3669C22.9814 25.6225 21.9596 26.6444 20.7039 26.6444C19.4483 26.6444 18.4264 25.6225 18.4264 24.3669C18.4264 24.1953 18.4449 24.024 18.4821 23.8594C18.5239 23.6778 18.7039 23.5653 18.8839 23.6056C19.0655 23.6475 19.178 23.8275 19.1377 24.0075C19.1108 24.1234 19.0974 24.2444 19.0974 24.3656C19.0974 25.2515 19.8168 25.9709 20.7027 25.9709C21.5886 25.9709 22.308 25.2515 22.308 24.3656C22.308 23.4797 21.5886 22.7603 20.7027 22.7603C20.4775 22.7603 20.2548 22.8077 20.0491 22.8994C19.8434 22.9912 19.6594 23.1252 19.5089 23.2928Z" fill="#775DDE"/>
<path d="M20.1744 23.7247L20.8853 24.4828C21.0819 24.3366 21.2519 24.2088 21.2853 24.1819C21.4181 24.0694 21.6165 24.0759 21.7409 24.2003C21.8722 24.3316 21.8722 24.545 21.7409 24.6759C21.719 24.6978 21.709 24.7078 21.0469 25.2022C20.9887 25.2458 20.918 25.2694 20.8453 25.2694C20.7547 25.2694 20.6653 25.2341 20.6 25.1634L19.684 24.1869C19.6537 24.1547 19.63 24.1169 19.6143 24.0755C19.5986 24.0342 19.5912 23.9902 19.5926 23.946C19.594 23.9017 19.6042 23.8583 19.6224 23.818C19.6407 23.7777 19.6667 23.7414 19.699 23.7113C19.835 23.5838 20.0469 23.5903 20.1744 23.7247Z" fill="#775DDE"/>
</svg>
