<svg width="23" height="22" viewBox="0 0 23 22" fill="none" xmlns="http://www.w3.org/2000/svg">
<g clip-path="url(#clip0_783_1871)">
<path d="M21.7996 11.5412C21.4779 11.5452 21.1705 11.6725 20.943 11.8958C20.7155 12.1192 20.5859 12.4209 20.5817 12.7367V14.9289C20.5721 15.2037 20.4566 15.4647 20.2585 15.6592C20.0604 15.8536 19.7946 15.9671 19.5146 15.9765H4.09634L5.72233 14.3789C5.94239 14.1499 6.06497 13.8471 6.06497 13.5323C6.06497 13.2175 5.94239 12.9146 5.72233 12.6857C5.48913 12.4696 5.18062 12.3493 4.85998 12.3493C4.53934 12.3493 4.23083 12.4696 3.99763 12.6857L0.342806 16.3209C0.12275 16.5499 0.000172083 16.8527 0.000172083 17.1675C0.000172083 17.4823 0.12275 17.7852 0.342806 18.0141L4.00163 21.6507C4.23098 21.874 4.54094 21.9994 4.86398 21.9994C5.18703 21.9994 5.49699 21.874 5.72633 21.6507C5.94639 21.4217 6.06897 21.1189 6.06897 20.8041C6.06897 20.4893 5.94639 20.1864 5.72633 19.9575L4.09634 18.3638H19.4613C20.381 18.3645 21.2641 18.0096 21.9192 17.3757C22.5743 16.7419 22.9487 15.8802 22.9614 14.9773V12.7381C22.9736 12.5827 22.9524 12.4265 22.8991 12.2797C22.8458 12.1328 22.7616 11.9987 22.652 11.8859C22.5424 11.7731 22.4099 11.6843 22.263 11.6251C22.1162 11.5659 21.9582 11.5378 21.7996 11.5425V11.5412ZM22.6759 3.9708L19.0224 0.336867C18.7892 0.120829 18.4807 0.000488281 18.1601 0.000488281C17.8394 0.000488281 17.5309 0.120829 17.2977 0.336867C17.0777 0.565814 16.9551 0.86869 16.9551 1.18347C16.9551 1.49826 17.0777 1.80113 17.2977 2.03008L18.921 3.62377H3.50009C2.58189 3.61539 1.69778 3.96484 1.04164 4.59549C0.385506 5.22615 0.0109086 6.08652 0 6.98794L0 9.2508C0.00414701 9.56662 0.133785 9.86837 0.36128 10.0917C0.588774 10.315 0.896131 10.4423 1.21783 10.4464C1.53953 10.4423 1.84688 10.315 2.07438 10.0917C2.30187 9.86837 2.43151 9.56662 2.43566 9.2508V7.0102C2.44529 6.73536 2.56081 6.47436 2.75888 6.2799C2.95695 6.08545 3.22281 5.97204 3.50276 5.96258H18.9224L17.2964 7.55758C17.0763 7.78653 16.9537 8.0894 16.9537 8.40419C16.9537 8.71897 17.0763 9.02185 17.2964 9.2508C17.5257 9.47415 17.8357 9.59947 18.1587 9.59947C18.4818 9.59947 18.7917 9.47415 19.0211 9.2508L22.6759 5.61818C22.8951 5.39799 23.0178 5.10235 23.0178 4.79449C23.0178 4.48663 22.8951 4.19099 22.6759 3.9708Z" fill="#775DDE"/>
</g>
<defs>
<clipPath id="clip0_783_1871">
<rect width="23" height="22" fill="white"/>
</clipPath>
</defs>
</svg>
