<svg width="19" height="19" viewBox="0 0 19 19" fill="none" xmlns="http://www.w3.org/2000/svg">
<path d="M17.5938 9.5C17.5938 13.97 13.97 17.5938 9.5 17.5938V18.9062C14.695 18.9062 18.9062 14.695 18.9062 9.5H17.5938ZM9.5 17.5938C5.02995 17.5938 1.40625 13.97 1.40625 9.5H0.09375C0.09375 14.695 4.30507 18.9062 9.5 18.9062V17.5938ZM1.40625 9.5C1.40625 5.02995 5.02995 1.40625 9.5 1.40625V0.09375C4.30507 0.09375 0.09375 4.30507 0.09375 9.5H1.40625ZM12.5625 11.4688C9.78385 11.4688 7.53125 9.21615 7.53125 6.4375H6.21875C6.21875 9.94109 9.05891 12.7812 12.5625 12.7812V11.4688ZM16.8721 9.03537C15.9901 10.4951 14.3897 11.4688 12.5625 11.4688V12.7812C14.868 12.7812 16.8856 11.5509 17.9956 9.71411L16.8721 9.03537ZM7.53125 6.4375C7.53125 4.61034 8.50486 3.00995 9.96463 2.12784L9.28589 1.00449C7.44908 2.11439 6.21875 4.13195 6.21875 6.4375H7.53125ZM9.5 1.40625C9.42256 1.40625 9.33174 1.37132 9.26585 1.30272C9.21002 1.24461 9.19707 1.18964 9.19401 1.1674C9.19034 1.14014 9.19217 1.06112 9.28589 1.00449L9.96463 2.12784C10.4049 1.86182 10.5465 1.37473 10.4947 0.991736C10.441 0.593602 10.127 0.09375 9.5 0.09375V1.40625ZM17.9956 9.71411C17.9389 9.80783 17.8598 9.80966 17.8326 9.80599C17.8104 9.80293 17.7554 9.78998 17.6973 9.73415C17.6287 9.66826 17.5938 9.57744 17.5938 9.5H18.9062C18.9062 8.87298 18.4064 8.55902 18.0082 8.5053C17.6252 8.4535 17.1381 8.59507 16.8721 9.03537L17.9956 9.71411Z" fill="#404040"/>
</svg>
