<svg width="26" height="25" viewBox="0 0 26 25" fill="none" xmlns="http://www.w3.org/2000/svg">
<path d="M17.2576 17.5831C17.0626 17.7471 16.7917 17.7574 16.5751 17.6446C15.6109 16.8858 15.4376 16.5372 14.9067 15.8092C13.3142 17.3472 12.1876 17.8086 10.1184 17.8086C7.68089 17.8086 5.77422 16.3834 5.77422 13.533C5.77422 11.2978 7.04172 9.80081 8.87256 9.04207C10.4542 8.38586 12.6534 8.26282 14.3326 8.08851V7.75015C14.3326 7.07343 14.3867 6.30444 13.9751 5.74051C13.6284 5.2381 12.9459 5.02278 12.3501 5.02278C11.2451 5.02278 10.2592 5.5662 10.0209 6.67356C9.96672 6.91964 9.75006 7.16571 9.51172 7.17597L6.69506 6.88888C6.45672 6.83761 6.19672 6.6633 6.26172 6.31469C6.91172 3.0849 9.99922 2.11084 12.7617 2.11084C14.1701 2.11084 16.0117 2.46971 17.1276 3.47453C18.5359 4.72543 18.4167 6.39672 18.4167 8.21155V12.4872C18.4167 13.7688 18.9584 14.343 19.5001 15.03C19.6842 15.2863 19.7276 15.5837 19.5001 15.758L17.2684 17.5831H17.2576ZM14.3326 10.8877V10.3135C12.2309 10.3135 10.0101 10.7134 10.0101 13.0511C10.0101 14.2405 10.6709 15.0505 11.7759 15.0505C12.5992 15.0505 13.3251 14.5686 13.7909 13.7996C14.3542 12.846 14.3326 11.954 14.3326 10.8877ZM21.8401 20.0951C19.5001 21.7356 16.0551 22.6174 13.1084 22.6174C8.98089 22.6174 5.25422 21.1717 2.43756 18.7622C2.22089 18.5776 2.41589 18.3213 2.70839 18.4648C5.72006 20.1361 9.47922 21.141 13.3576 21.141C15.9684 21.141 18.8501 20.6283 21.4934 19.5722C21.8942 19.4081 22.2084 19.8183 21.8401 20.0951ZM22.8259 19.0288C22.5226 18.6597 20.8217 18.8545 20.0417 18.9468C19.8359 18.9673 19.8034 18.7827 20.0092 18.6392C21.3526 17.7369 23.5734 18.0034 23.8334 18.3008C24.0934 18.6084 23.7576 20.7103 22.4901 21.7049C22.2951 21.8689 22.1109 21.7767 22.2084 21.5921C22.4901 20.9051 23.1292 19.3979 22.8259 19.0288Z" fill="#775DDE"/>
</svg>
