<svg width="13" height="16" viewBox="0 0 13 16" fill="none" xmlns="http://www.w3.org/2000/svg">
<path d="M7.3 1L5.9 2.39682L5.94144 2.43832M5.94144 2.43832L7.3 3.8M5.94144 2.43832C6.15739 2.41301 6.37719 2.4 6.6 2.4C9.69282 2.4 12.2 4.90721 12.2 8.00001C12.2 9.76849 11.3802 11.3455 10.1 12.3718M5.9 12.2001L7.3 13.5376L7.27921 13.5592M7.27921 13.5592C7.05661 13.5861 6.82988 13.6 6.6 13.6C3.50721 13.6 1 11.0928 1 8.00001C1 6.23154 1.81975 4.65453 3.1 3.62824M7.27921 13.5592L5.9 15.0001" stroke="#775DDE" stroke-width="1.4" stroke-linecap="round" stroke-linejoin="round"/>
</svg>
