<svg width="32" height="32" viewBox="0 0 32 32" fill="none" xmlns="http://www.w3.org/2000/svg">
<path d="M9.14305 29.0286H4.57162C3.65734 29.0286 3.2002 28.3429 3.2002 27.6572V16.6858C3.2002 16.0001 3.88591 15.3143 4.57162 15.3143H9.14305C10.0573 15.3143 10.5145 16.0001 10.5145 16.6858V27.6572C10.7431 28.3429 10.0573 29.0286 9.14305 29.0286ZM4.8002 27.4286H8.91448V16.9143H4.8002V27.4286ZM29.4859 29.0286H25.1431C24.2288 29.0286 23.5431 28.3429 23.5431 27.4286V12.3429C23.5431 11.4286 24.2288 10.7429 25.1431 10.7429H29.4859C30.4002 10.7429 31.0859 11.4286 31.0859 12.3429V27.4286C31.0859 28.3429 30.4002 29.0286 29.4859 29.0286ZM29.2573 12.3429H25.1431V27.4286L29.2573 27.2001V12.3429Z" fill="#775DDE"/>
<path d="M19.4287 29.0285H15.3144C14.4001 29.0285 13.4858 28.3428 13.4858 27.1999V3.19991C13.4858 2.28562 14.1716 1.37134 15.3144 1.37134H19.2001C20.1144 1.37134 21.0287 2.05705 21.0287 3.19991V27.4285C21.0287 28.3428 20.343 29.0285 19.4287 29.0285ZM15.3144 3.19991V27.4285H19.4287V3.19991H15.3144Z" fill="#775DDE"/>
</svg>
