<svg width="21" height="21" viewBox="0 0 21 21" fill="none" xmlns="http://www.w3.org/2000/svg">
<g clip-path="url(#clip0_783_2889)">
<path d="M10.2138 0.013916C12.9745 0.013916 15.4743 1.1332 17.2836 2.94253C19.093 4.75186 20.2123 7.25163 20.2123 10.0124C20.2123 12.7731 19.093 15.2729 17.2836 17.0822C15.4743 18.8916 12.9745 20.0108 10.2138 20.0108C7.45305 20.0108 4.95328 18.8916 3.14394 17.0822C1.33461 15.2729 0.215332 12.7731 0.215332 10.0124C0.215332 7.25163 1.33461 4.75186 3.14394 2.94253C4.95328 1.1332 7.45305 0.013916 10.2138 0.013916Z" fill="#B3B3B3"/>
<path d="M10.2134 18.86C15.0999 18.86 19.0611 14.8987 19.0611 10.0123C19.0611 5.1258 15.0999 1.16455 10.2134 1.16455C5.32697 1.16455 1.36572 5.1258 1.36572 10.0123C1.36572 14.8987 5.32697 18.86 10.2134 18.86Z" fill="#B7B7B7"/>
</g>
<rect x="5.43188" y="8.70825" width="9.56375" height="2.60829" rx="1.30415" fill="white"/>
<defs>
<clipPath id="clip0_783_2889">
<rect width="19.9969" height="19.9969" fill="white" transform="translate(0.215332 0.013916)"/>
</clipPath>
</defs>
</svg>
