<svg width="25" height="25" viewBox="0 0 25 25" fill="none" xmlns="http://www.w3.org/2000/svg">
<g clip-path="url(#clip0_1155_92)">
<path d="M23.6438 10.1614L13.6633 10.1609C13.2226 10.1609 12.8654 10.5181 12.8654 10.9588V14.1471C12.8654 14.5878 13.2226 14.945 13.6633 14.945H19.2837C18.6682 16.5422 17.5196 17.8798 16.054 18.7297L18.4506 22.8784C22.2949 20.655 24.5677 16.7539 24.5677 12.387C24.5677 11.7652 24.5219 11.3207 24.4302 10.8202C24.3605 10.4399 24.0304 10.1614 23.6438 10.1614Z" fill="#167EE6"/>
<path d="M12.3333 19.7357C9.58281 19.7357 7.18164 18.2329 5.89202 16.009L1.74353 18.4002C3.85467 22.0591 7.80951 24.523 12.3333 24.523C14.5526 24.523 16.6466 23.9255 18.4505 22.8842V22.8785L16.054 18.7298C14.9577 19.3656 13.6892 19.7357 12.3333 19.7357Z" fill="#12B347"/>
<path d="M18.4504 22.8841V22.8784L16.0539 18.7297C14.9577 19.3655 13.6892 19.7356 12.3333 19.7356V24.5229C14.5525 24.5229 16.6466 23.9254 18.4504 22.8841Z" fill="#0F993E"/>
<path d="M4.88622 12.2887C4.88622 10.933 5.25622 9.66455 5.89187 8.56839L1.74339 6.17725C0.696351 7.97545 0.098877 10.0638 0.098877 12.2887C0.098877 14.5136 0.696351 16.602 1.74339 18.4002L5.89187 16.0091C5.25622 14.9129 4.88622 13.6445 4.88622 12.2887Z" fill="#FFD500"/>
<path d="M12.3333 4.84179C14.127 4.84179 15.7745 5.47912 17.0613 6.53925C17.3788 6.80076 17.8402 6.78188 18.131 6.49108L20.3901 4.23203C20.72 3.90209 20.6965 3.36201 20.344 3.05625C18.188 1.18578 15.3827 0.0544434 12.3333 0.0544434C7.80951 0.0544434 3.85467 2.51837 1.74353 6.17729L5.89202 8.56843C7.18164 6.3446 9.58281 4.84179 12.3333 4.84179Z" fill="#FF4B26"/>
<path d="M17.0612 6.53925C17.3787 6.80076 17.8402 6.78188 18.1309 6.49108L20.39 4.23203C20.7199 3.90209 20.6964 3.36201 20.344 3.05625C18.1879 1.18574 15.3826 0.0544434 12.3333 0.0544434V4.84179C14.1268 4.84179 15.7744 5.47912 17.0612 6.53925Z" fill="#D93F21"/>
</g>
<defs>
<clipPath id="clip0_1155_92">
<rect width="24.4686" height="24.4686" fill="white" transform="translate(0.098877 0.0544434)"/>
</clipPath>
</defs>
</svg>
