<svg width="30" height="29" viewBox="0 0 30 29" fill="none" xmlns="http://www.w3.org/2000/svg">
<path d="M26.2471 13.1912L26.25 13.194V23.8333L26.2471 23.8361H3.75293L3.75 23.8333V13.194L3.75293 13.1912H26.2471ZM26.25 11.4166H3.75C2.71875 11.4166 1.875 12.2152 1.875 13.1912V23.8361C1.875 24.8121 2.71875 25.6107 3.75 25.6107H26.25C27.2812 25.6107 28.125 24.8121 28.125 23.8361V13.1912C28.125 12.2152 27.2812 11.4166 26.25 11.4166ZM15.0029 0.771729C13.9687 0.771729 13.1279 1.56753 13.1279 2.54634C13.1279 3.52514 13.9687 4.32095 15.0029 4.32095C16.0371 4.32095 16.8779 3.52514 16.8779 2.54634C16.8779 1.56753 16.0371 0.771729 15.0029 0.771729Z" fill="#775DDE"/>
<path d="M4.64941 12.0416C4.46191 12.0416 4.27441 11.9751 4.13086 11.8392C3.84375 11.5675 3.84375 11.1294 4.13086 10.8576L14.4873 1.05569C14.625 0.925365 14.8096 0.853271 15.0059 0.853271C15.1992 0.853271 15.3867 0.925365 15.5244 1.05569L25.8779 10.8549C26.165 11.1266 26.165 11.5647 25.8779 11.8364C25.5908 12.1082 25.1279 12.1082 24.8408 11.8364L15.0059 2.52529L5.16797 11.8364C5.02441 11.9723 4.83691 12.0416 4.64941 12.0416ZM5.7334 19.531L6.50391 18.6437C6.9082 18.9681 7.43262 19.1927 7.88379 19.1927C8.3877 19.1927 8.62207 19.0125 8.62207 18.7241C8.62207 18.4136 8.30859 18.3138 7.82227 18.1197L7.09863 17.8313C6.50391 17.6067 5.94727 17.1381 5.94727 16.3617C5.94727 15.4605 6.79981 14.7396 8.00391 14.7396C8.66016 14.7396 9.35156 14.978 9.84668 15.4467L9.16992 16.2508C8.79785 15.9846 8.44629 15.8404 8.00391 15.8404C7.58496 15.8404 7.32715 15.9984 7.32715 16.2868C7.32715 16.5835 7.68457 16.6972 8.18848 16.8857L8.89746 17.1519C9.59766 17.4181 10.0166 17.8646 10.0166 18.6215C10.0166 19.5144 9.22559 20.3019 7.85449 20.3019C7.11328 20.3019 6.32227 20.044 5.7334 19.531ZM13.6318 18.9709H11.9561L11.6309 20.2021H10.2451L12.0059 14.8394H13.6348L15.3955 20.2021H13.9629L13.6318 18.9709ZM13.374 17.9755L13.251 17.5207C13.0986 16.9883 12.9551 16.345 12.8027 15.7988H12.7734C12.6357 16.3617 12.4834 16.9883 12.3398 17.5207L12.2168 17.9755H13.374ZM15.9873 14.8394H17.3496V19.1206H19.5498V20.2021H15.9873V14.8394ZM20.5342 14.8394H24.1289V15.9069H21.8965V16.9024H23.792V17.9838H21.8965V19.1234H24.2109V20.2048H20.5342V14.8394Z" fill="#775DDE"/>
</svg>
