<svg width="48" height="46" viewBox="0 0 48 46" fill="none" xmlns="http://www.w3.org/2000/svg">
<path fill-rule="evenodd" clip-rule="evenodd" d="M25.4034 24.6272C24.6612 26.0334 23.3884 26.9388 22.0111 27.2442C21.8023 27.2442 21.4834 27.3433 21.1645 27.3433C18.8362 27.3433 17.4589 25.6343 17.4589 23.1218C17.4589 19.9021 19.4712 18.3967 22.0111 17.6896C23.3884 17.3895 24.9801 17.2878 26.569 17.2878V18.4958C26.569 20.8075 26.6734 22.6155 25.4034 24.6272ZM26.569 12.6672C25.1918 12.7663 23.6 12.8654 22.0111 13.0636C19.5756 13.369 17.14 13.7707 15.1306 14.6761C11.2106 16.1842 8.56055 19.4012 8.56055 24.1236C8.56055 30.0594 12.585 33.0728 17.6734 33.0728C19.3667 33.0728 20.744 32.8692 22.0111 32.5719C24.029 31.9666 25.7195 30.8603 27.7317 28.8486C28.8973 30.3567 29.219 31.0639 31.2284 32.671C31.759 32.8692 32.2896 32.8692 32.7101 32.5719C33.9829 31.5648 36.2096 29.754 37.3724 28.7495C37.9029 28.3477 37.7985 27.7424 37.4768 27.2442C36.314 25.8352 35.1457 24.6272 35.1457 21.9137V12.8654C35.1457 9.04567 35.4674 5.52598 32.5013 2.91433C30.0657 0.806262 26.2501 0 23.284 0H22.0111C16.6123 0.297326 10.8945 2.50986 9.61887 8.84478C9.40721 9.65104 10.045 9.95104 10.4684 10.0502L16.4006 10.7546C17.0356 10.6528 17.3545 10.1493 17.4589 9.65104C17.9867 7.4385 19.8945 6.33224 22.0111 6.12866H22.4373C23.7101 6.12866 25.0873 6.63224 25.8268 7.6394C26.6734 8.84478 26.569 10.4546 26.569 11.8636V12.6672Z" fill="#343B45"/>
<path fill-rule="evenodd" clip-rule="evenodd" d="M47.9944 34.1011V34.0984C47.9718 33.6243 47.8674 33.2627 47.6585 32.9627L47.6359 32.9332L47.6105 32.9038C47.3989 32.6841 47.1957 32.6011 46.9755 32.51C46.318 32.2689 45.3612 32.1404 44.2098 32.1377C43.3829 32.1377 42.4713 32.2127 41.5541 32.4029L41.5513 32.3439L40.6284 32.6359L40.6115 32.644L40.0894 32.8047V32.8261C39.477 33.0672 38.921 33.3672 38.4045 33.7234C38.0828 33.9511 37.8175 34.2538 37.8034 34.7172C37.7949 34.969 37.9304 35.2583 38.1533 35.4297C38.3763 35.6011 38.6359 35.6601 38.8645 35.6601C38.9182 35.6601 38.969 35.6574 39.0141 35.6494L39.0593 35.6467L39.0931 35.6413C39.5447 35.5502 40.2023 35.4886 40.9727 35.3869C41.6331 35.3172 42.333 35.2663 42.9398 35.2663C43.3688 35.2636 43.7554 35.2931 44.0207 35.3467C44.1533 35.3735 44.2521 35.4056 44.3057 35.4324C44.3255 35.4377 44.3396 35.4458 44.3481 35.4511C44.3594 35.486 44.3763 35.577 44.3735 35.7029C44.3791 36.1851 44.1646 37.0797 43.8683 37.953C43.5804 38.8262 43.2305 39.7021 42.9991 40.2834C42.9426 40.4173 42.9059 40.5646 42.9059 40.7253C42.9003 40.9584 43.0019 41.2423 43.2164 41.4298C43.4252 41.6173 43.6961 41.6923 43.9219 41.6923H43.9332C44.2719 41.6896 44.5597 41.5611 44.8081 41.3762C47.1505 39.378 47.9661 36.1851 48 34.3877L47.9944 34.1011ZM41.0489 36.8708C40.809 36.8681 40.5635 36.9217 40.3349 37.0235C40.0781 37.1199 39.8156 37.2324 39.5673 37.3315L39.2032 37.4762L38.7291 37.6556V37.661C33.5786 39.6432 28.1684 40.8057 23.1618 40.9075C22.9784 40.9128 22.7921 40.9128 22.6143 40.9128C14.7404 40.9182 8.31706 37.4521 1.8373 34.0368C1.61152 33.9243 1.37728 33.8654 1.1515 33.8654C0.860816 33.8654 0.561663 33.9699 0.344353 34.1627C0.127044 34.3583 -0.00277711 34.6395 4.50896e-05 34.9261C-0.00277711 35.2985 0.208888 35.6413 0.505219 35.8636C6.58706 40.8753 13.2531 45.5308 22.2192 45.5361C22.3942 45.5361 22.572 45.5308 22.7498 45.5281C28.4535 45.4075 34.9022 43.578 39.9088 40.5941L39.9398 40.5753C40.5946 40.203 41.2493 39.7798 41.8674 39.311C42.2512 39.0405 42.5165 38.6173 42.5165 38.178C42.4995 37.3985 41.8025 36.8708 41.0489 36.8708Z" fill="#FF9A00"/>
</svg>
