<svg width="21" height="21" viewBox="0 0 21 21" fill="none" xmlns="http://www.w3.org/2000/svg">
<g clip-path="url(#clip0_783_2881)">
<path d="M10.0829 0.468506C12.8437 0.468506 15.3435 1.58779 17.1528 3.39712C18.9621 5.20645 20.0814 7.70622 20.0814 10.467C20.0814 13.2277 18.9621 15.7275 17.1528 17.5368C15.3435 19.3461 12.8437 20.4654 10.0829 20.4654C7.32219 20.4654 4.82242 19.3461 3.01308 17.5368C1.20375 15.7275 0.0844727 13.2277 0.0844727 10.467C0.0844727 7.70622 1.20375 5.20645 3.01308 3.39712C4.82242 1.58779 7.32219 0.468506 10.0829 0.468506Z" fill="#A82C1F"/>
<path d="M10.0828 19.3148C14.9693 19.3148 18.9305 15.3535 18.9305 10.4671C18.9305 5.58064 14.9693 1.61938 10.0828 1.61938C5.19636 1.61938 1.23511 5.58064 1.23511 10.4671C1.23511 15.3535 5.19636 19.3148 10.0828 19.3148Z" fill="#D03827"/>
<path d="M10.8465 12.2745C10.8122 13.1362 9.35279 13.1373 9.31948 12.2742C9.17188 10.7977 8.7944 7.29243 8.80643 5.9051C8.81862 5.47759 9.1729 5.2245 9.62623 5.12795C9.76597 5.09808 9.91962 5.08359 10.0744 5.08374C10.2302 5.08401 10.3842 5.09936 10.5241 5.12924C10.9924 5.22899 11.36 5.49251 11.3599 5.92771L11.3581 5.97134L10.8465 12.2745ZM10.083 13.8059C10.6475 13.8059 11.105 14.2635 11.105 14.8281C11.105 15.3925 10.6475 15.8501 10.083 15.8501C9.51851 15.8501 9.06085 15.3925 9.06085 14.8281C9.06085 14.2635 9.51851 13.8059 10.083 13.8059Z" fill="white"/>
</g>
<defs>
<clipPath id="clip0_783_2881">
<rect width="19.9969" height="19.9969" fill="white" transform="translate(0.0839844 0.468506)"/>
</clipPath>
</defs>
</svg>
