<svg width="76" height="30" viewBox="0 0 76 30" fill="none" xmlns="http://www.w3.org/2000/svg">
<path d="M9.76231 6.54492C4.43731 6.54492 0 8.78538 0 15.5447C0 20.8996 2.98377 24.2718 9.89981 24.2718C18.0403 24.2718 18.5621 18.9538 18.5621 18.9538H14.6177C14.6177 18.9538 13.772 21.8173 9.65918 21.8173C6.30944 21.8173 3.90018 19.5732 3.90018 16.4277H18.9746V14.4539C18.9746 11.342 16.9827 6.54492 9.76231 6.54492ZM9.62481 9.0676C12.8134 9.0676 14.9872 11.0049 14.9872 13.9084H3.98742C3.98742 10.8259 6.82477 9.0676 9.62481 9.0676Z" fill="#E53238"/>
<path d="M18.972 0V20.8777C18.972 22.0628 18.8867 23.7268 18.8867 23.7268H22.6489C22.6489 23.7268 22.7839 22.5317 22.7839 21.4395C22.7839 21.4395 24.6427 24.3234 29.6968 24.3234C35.019 24.3234 38.6341 20.6589 38.6341 15.4088C38.6341 10.5247 35.3135 6.59646 29.7054 6.59646C24.4538 6.59646 22.8219 9.40891 22.8219 9.40891V0H18.972ZM28.7343 9.1788C32.3485 9.1788 34.6467 11.839 34.6467 15.4088C34.6467 19.2368 31.9923 21.7411 28.7601 21.7411C24.9027 21.7411 22.8219 18.7541 22.8219 15.4429C22.8219 12.3575 24.6891 9.1788 28.7343 9.1788Z" fill="#0064D2"/>
<path d="M47.983 6.54492C39.972 6.54492 39.4582 10.8951 39.4582 11.5903H43.4456C43.4456 11.5903 43.6547 9.05055 47.708 9.05055C50.3419 9.05055 52.3829 10.2462 52.3829 12.5448V13.363H47.708C41.5017 13.363 38.2207 15.1635 38.2207 18.8174C38.2207 22.4133 41.2523 24.3699 45.3491 24.3699C50.9324 24.3699 52.731 21.3103 52.731 21.3103C52.731 22.5272 52.8256 23.7264 52.8256 23.7264H56.3703C56.3703 23.7264 56.2328 22.24 56.2328 21.2889V13.0689C56.2328 7.67919 51.8492 6.54492 47.983 6.54492ZM52.3829 15.8175V16.9084C52.3829 18.3312 51.4976 21.8685 46.2858 21.8685C43.4318 21.8685 42.2081 20.4559 42.2081 18.8174C42.2081 15.8367 46.3289 15.8175 52.3829 15.8175Z" fill="#F5AF02"/>
<path d="M54.0879 7.22754H58.5729L65.0107 20.0189L71.4348 7.22754H75.4979L63.7982 30H59.5361L62.9118 23.6515L54.0879 7.22754Z" fill="#86B817"/>
</svg>
