<svg width="36" height="34" viewBox="0 0 36 34" fill="none" xmlns="http://www.w3.org/2000/svg">
<path d="M17.6979 18.77C16.907 20.0636 16.4917 21.5321 16.4941 23.0267C16.4941 25.2075 17.3606 27.1954 18.7848 28.7022H7.49916C7.10156 28.7022 6.72024 28.5527 6.43909 28.2866C6.15795 28.0205 6 27.6596 6 27.2833V23.7361C6 22.419 6.55281 21.1559 7.53683 20.2245C8.52084 19.2932 9.85544 18.77 11.247 18.77H17.6979ZM21.6902 26.7243C21.5103 26.9825 21.2404 27.1542 21.0605 27.4125C20.8791 27.5841 20.6078 27.6707 20.3379 27.4976C20.248 27.4976 20.248 27.4125 20.158 27.4125L19.3455 26.6377C19.1656 26.4675 19.0756 26.2944 19.1656 26.0361C19.1656 25.951 19.2555 25.8644 19.3455 25.7779L19.9766 25.1763V25.0912C19.8867 24.8329 19.7068 24.5747 19.6168 24.3164C19.6168 24.2313 19.5269 24.2313 19.5269 24.2313H18.6229C18.4837 24.2289 18.3487 24.1861 18.2361 24.1087C18.1235 24.0313 18.0387 23.9231 17.9933 23.7985V22.5088C17.9933 22.252 18.0832 22.0789 18.3531 21.9072C18.443 21.822 18.533 21.822 18.6244 21.822H19.6168C19.7068 21.822 19.7068 21.822 19.7068 21.7355C19.7967 21.4772 19.8867 21.3056 19.9766 21.0473C19.9766 20.9622 20.0666 20.9622 20.0666 20.8756L19.4369 20.274C19.1656 20.0158 19.1656 19.671 19.4369 19.4142L20.2465 18.6395C20.5178 18.3812 20.8791 18.3812 21.149 18.6395L21.7801 19.2411H21.8701C22.1399 19.1559 22.4113 18.9843 22.6826 18.8977C22.7726 18.8977 22.7726 18.8126 22.7726 18.8126V17.9513C22.7726 17.6931 22.9525 17.4362 23.2223 17.3497H24.5761C24.8459 17.3497 25.0258 17.4348 25.2072 17.6931C25.2971 17.7796 25.2971 17.8662 25.2971 17.9513V18.8977C25.2971 18.9828 25.2971 18.9828 25.3871 18.9828C25.6569 19.0694 26.0182 19.2411 26.2896 19.3276V19.2425L26.9192 18.6395C27.1006 18.4678 27.372 18.3812 27.6418 18.5543C27.7318 18.5543 27.7318 18.6395 27.8217 18.6395L28.6343 19.4142C28.8142 19.5844 28.9041 19.7575 28.8142 20.0158C28.8142 20.1009 28.7242 20.1875 28.6343 20.274L28.0031 20.8756V20.9608C28.0931 21.219 28.273 21.4772 28.3629 21.7355C28.3629 21.8206 28.4529 21.8206 28.4529 21.8206H29.3554C29.6252 21.8206 29.8951 21.9937 29.9865 22.252V23.5417C29.9865 23.7985 29.8966 23.9716 29.6267 24.1433C29.5368 24.2285 29.4468 24.2285 29.3554 24.2285H28.4529C28.3629 24.2285 28.3629 24.2285 28.3629 24.315C28.273 24.5733 28.183 24.7449 28.0931 25.0032C28.0931 25.0883 28.0031 25.0883 28.0031 25.1749H28.0931L28.7227 25.7765C28.9941 26.0347 28.9941 26.3795 28.8142 26.5512C28.5443 26.8094 28.2745 27.1528 27.9132 27.411C27.6433 27.6693 27.372 27.5827 27.1006 27.411L26.471 26.8094H26.3795C26.1097 26.8946 25.8398 27.0662 25.5685 27.1528C25.4785 27.1528 25.4785 27.2379 25.4785 27.2379V28.0992C25.4785 28.3574 25.2986 28.6143 25.0273 28.7008H23.6736C23.4037 28.7008 23.2238 28.6157 23.0439 28.3574C22.954 28.2709 22.954 28.1843 22.954 28.0992V27.2393C22.954 27.1542 22.954 27.1542 22.864 27.1542C22.5927 27.0662 22.4113 26.9811 22.1414 26.8946C21.8716 26.8094 21.7816 26.8094 21.6917 26.7243H21.6902ZM25.489 23.0267C25.489 22.2704 24.8399 21.6078 23.9899 21.6078C23.1908 21.6078 22.4907 22.2222 22.4907 23.0267C22.4907 23.7829 23.1399 24.4456 23.9899 24.4456C24.8399 24.4456 25.489 23.8312 25.489 23.0267ZM17.9933 17.3511C17.2058 17.3511 16.426 17.2043 15.6984 16.9191C14.9709 16.6339 14.3098 16.2158 13.753 15.6888C13.1962 15.1618 12.7545 14.5361 12.4531 13.8475C12.1517 13.1589 11.9966 12.4209 11.9966 11.6756C11.9966 10.9302 12.1517 10.1922 12.4531 9.50361C12.7545 8.81502 13.1962 8.18936 13.753 7.66233C14.3098 7.13531 14.9709 6.71725 15.6984 6.43203C16.426 6.1468 17.2058 6 17.9933 6C19.5837 6 21.1089 6.59796 22.2335 7.66233C23.3581 8.72671 23.9899 10.1703 23.9899 11.6756C23.9899 13.1808 23.3581 14.6244 22.2335 15.6888C21.1089 16.7532 19.5837 17.3511 17.9933 17.3511Z" fill="#775DDE"/>
</svg>
