<svg width="28" height="27" viewBox="0 0 28 27" fill="none" xmlns="http://www.w3.org/2000/svg">
<g clip-path="url(#clip0_783_1758)">
<path d="M27.6596 9.82663L14.7156 1.06925C14.624 0.981036 14.4864 0.892447 14.3944 0.848153C14.0268 0.62706 13.4764 0.759943 13.2008 1.15783L0.348355 9.87093C-0.0644446 10.1363 -0.110445 10.711 0.210755 11.1536C0.531955 11.5954 1.12876 11.7286 1.49596 11.4629L2.36796 10.8439V25.2187C2.36796 25.7491 2.82676 26.1917 3.37756 26.1917C3.92836 26.1917 4.38716 25.7491 4.38716 25.2187V9.47304L14.0268 2.97087L23.758 9.56124V25.174C23.758 25.7052 24.2168 26.1474 24.7676 26.1474C25.3184 26.1474 25.7772 25.7052 25.7772 25.174V10.9768L26.466 11.419C26.8792 11.6843 27.4304 11.5515 27.7512 11.1093C28.0728 10.6671 28.0272 10.092 27.6596 9.82663ZM9.34516 23.096H7.69276C7.05036 23.096 6.91236 23.2285 6.91236 23.8475V25.4841C6.91236 26.1031 7.05036 26.2356 7.69276 26.2356H9.34516C9.98756 26.2356 10.1252 26.1027 10.1252 25.4841V23.8475C10.0796 23.2285 9.94196 23.096 9.34516 23.096ZM9.34516 17.7439H7.69276C7.05036 17.7439 6.91236 17.8764 6.91236 18.4954V20.0878C6.91236 20.7071 7.05036 20.8392 7.69276 20.8392H9.34516C9.98756 20.8392 10.1252 20.7067 10.1252 20.0878V18.4511C10.0796 17.8764 9.94196 17.7439 9.34516 17.7439ZM14.8532 23.096H13.2008C12.558 23.096 12.4208 23.2285 12.4208 23.8475V25.4841C12.4208 26.1031 12.558 26.2356 13.2008 26.2356H14.8532C15.496 26.2356 15.6336 26.1027 15.6336 25.4841V23.8475C15.5884 23.2285 15.45 23.096 14.8532 23.096ZM20.3616 23.096H18.7088C18.0664 23.096 17.9288 23.2285 17.9288 23.8475V25.4841C17.9288 26.1031 18.0664 26.2356 18.7088 26.2356H20.3616C21.004 26.2356 21.1412 26.1027 21.1412 25.4841V23.8475C21.0956 23.2285 20.9584 23.096 20.3616 23.096ZM14.8532 17.7439H13.2008C12.558 17.7439 12.4208 17.8764 12.4208 18.4954V20.0878C12.4208 20.7071 12.558 20.8392 13.2008 20.8392H14.8532C15.496 20.8392 15.6336 20.7067 15.6336 20.0878V18.4511C15.5884 17.8764 15.45 17.7439 14.8532 17.7439ZM9.34516 12.3919H7.69276C7.05036 12.3919 6.91236 12.5252 6.91236 13.1442V14.7804C6.91236 15.3998 7.05036 15.5323 7.69276 15.5323H9.34516C9.98756 15.5323 10.1252 15.3994 10.1252 14.7804V13.1442C10.0796 12.4809 9.94196 12.3919 9.34516 12.3919Z" fill="#775DDE"/>
<g clip-path="url(#clip1_783_1758)">
<path d="M20.831 13.6572C20.6375 13.49 20.42 13.3495 20.1848 13.24C19.9493 13.1371 19.7077 13.0399 19.4662 12.9599L18.7656 12.737C18.5579 12.6815 18.3558 12.6088 18.1617 12.5198C18.0197 12.4557 17.8892 12.3708 17.7751 12.2683C17.6947 12.1837 17.6515 12.0733 17.6543 11.9596C17.6547 11.8787 17.6733 11.7988 17.7087 11.7252C17.7428 11.6473 17.7993 11.58 17.8718 11.5309C17.9644 11.4612 18.0714 11.4106 18.1858 11.3823C18.4856 11.3149 18.7979 11.3149 19.0978 11.3823C19.2259 11.4044 19.3514 11.4389 19.4722 11.4852C19.583 11.5285 19.6901 11.5801 19.7923 11.6395C19.886 11.6931 19.9731 11.7563 20.052 11.8281C20.1123 11.8829 20.1792 11.9308 20.2513 11.971L20.36 11.8681L20.4687 11.7653L20.982 11.2794L21.0968 11.1708L21.2115 11.0622V11.0222C20.9957 10.7512 20.7139 10.5336 20.3902 10.3877C20.0628 10.2421 19.715 10.142 19.3574 10.0905V8.94727H18.0892V10.0905C17.8224 10.1269 17.5623 10.1981 17.3161 10.302C17.0733 10.4062 16.8539 10.5537 16.6699 10.7364C16.5007 10.8984 16.3672 11.0908 16.2774 11.3023C16.1973 11.519 16.1565 11.7471 16.1566 11.9767C16.1471 12.241 16.2002 12.5039 16.312 12.7463C16.4238 12.9886 16.5915 13.2042 16.8028 13.3772C16.9969 13.536 17.2146 13.667 17.449 13.7658C17.6785 13.8687 17.9201 13.9602 18.1556 14.0402L18.8622 14.2631C19.0701 14.3229 19.2721 14.3994 19.4662 14.4918C19.6111 14.5634 19.7418 14.6581 19.8527 14.7719C19.9398 14.8733 19.9849 15.0013 19.9795 15.132C19.9891 15.2418 19.9686 15.3522 19.9199 15.4523C19.8712 15.5524 19.7961 15.639 19.7017 15.7036C19.3899 15.8514 19.0397 15.9109 18.6931 15.8751C18.536 15.8768 18.3795 15.8576 18.2281 15.8179C18.0797 15.7839 17.9358 15.734 17.7993 15.6693C17.6668 15.6072 17.5413 15.5325 17.4249 15.4464C17.3073 15.3606 17.1963 15.267 17.0927 15.1663C17.0281 15.1068 16.9595 15.0515 16.8874 15.0005C16.854 14.9769 16.8174 14.9577 16.7786 14.9433L16.6518 15.0634L16.5189 15.1891L16.1264 15.555L15.9875 15.6864L15.8667 15.8007C15.8805 15.8469 15.9008 15.8911 15.9271 15.9322C16.0287 16.0886 16.1527 16.231 16.2955 16.3552C16.4525 16.4956 16.6246 16.6201 16.8088 16.7267C17.0234 16.8452 17.25 16.9429 17.4852 17.0182C17.682 17.0833 17.8839 17.133 18.0892 17.1669V18.2815H19.3574V17.1669C19.6413 17.1349 19.9195 17.0677 20.1848 16.9668C20.4489 16.8678 20.6907 16.7224 20.8975 16.5381C21.0927 16.3605 21.2433 16.1436 21.3384 15.9036C21.4372 15.6513 21.4864 15.3839 21.4833 15.1148C21.4909 14.8223 21.4311 14.5317 21.3082 14.2631C21.1898 14.0352 21.028 13.8298 20.831 13.6572Z" fill="#775DDE"/>
</g>
</g>
<defs>
<clipPath id="clip0_783_1758">
<rect width="28" height="26.5008" fill="white" transform="translate(0 0.11377)"/>
</clipPath>
<clipPath id="clip1_783_1758">
<rect width="9.33333" height="8.83361" fill="white" transform="translate(14 8.94727)"/>
</clipPath>
</defs>
</svg>
