<svg width="15" height="13" viewBox="0 0 15 13" fill="none" xmlns="http://www.w3.org/2000/svg">
<path d="M5.68262 6.76494C5.68262 5.81233 6.42136 5.04004 7.33258 5.04004C8.2438 5.04004 8.98254 5.81233 8.98254 6.76494C8.98254 7.71754 8.2438 8.48984 7.33258 8.48984C6.42136 8.48984 5.68262 7.71754 5.68262 6.76494Z" fill="#775DDE"/>
<path fill-rule="evenodd" clip-rule="evenodd" d="M0 6.76481C0 8.02161 0.31163 8.44486 0.934898 9.29136C2.17939 10.9815 4.26652 12.8978 7.33317 12.8978C10.3998 12.8978 12.4869 10.9815 13.7314 9.29136C14.3547 8.44486 14.6663 8.02161 14.6663 6.76481C14.6663 5.50801 14.3547 5.08478 13.7314 4.23828C12.4869 2.54805 10.3998 0.631836 7.33317 0.631836C4.26652 0.631836 2.17939 2.54805 0.934898 4.23828C0.31163 5.08478 0 5.50801 0 6.76481ZM7.33317 3.88998C5.81442 3.88998 4.58323 5.17708 4.58323 6.76481C4.58323 8.35256 5.81442 9.63964 7.33317 9.63964C8.85194 9.63964 10.0831 8.35256 10.0831 6.76481C10.0831 5.17708 8.85194 3.88998 7.33317 3.88998Z" fill="#775DDE"/>
</svg>
