<svg width="40" height="27" viewBox="0 0 40 27" fill="none" xmlns="http://www.w3.org/2000/svg">
<path d="M20.2258 6.88672C14.8838 6.88672 10.5381 9.79235 10.5381 13.3688C10.5381 16.9453 14.8834 19.8468 20.2258 19.8468C25.5682 19.8468 29.9136 16.9412 29.9136 13.3688C29.9136 9.79645 25.5682 6.88672 20.2258 6.88672ZM23.4848 12.0955H21.0118V11.023H19.4398V12.134L22.9097 13.433C23.3059 13.6723 23.4848 13.95 23.4848 14.279V16.1762C23.4848 16.6548 23.1717 16.8856 22.9097 16.9924C22.6541 17.0992 22.2771 17.1505 21.7723 17.1505H21.3953V17.8726H19.0373V17.1505H18.6603C18.1554 17.1505 17.7848 17.0992 17.5292 16.9924C17.1586 16.8386 16.9669 16.5651 16.9669 16.1762V14.6636H19.4399V15.7276H21.0119V14.4585L17.4653 13.1168C17.133 12.9032 16.9605 12.6254 16.9605 12.2921V10.5487C16.9605 10.1642 17.1458 9.89072 17.5164 9.7326C17.7784 9.62577 18.1491 9.5745 18.6539 9.5745H19.0309V8.85237H21.3889V9.5745H21.7851C22.2899 9.5745 22.6605 9.62577 22.9161 9.7326C23.1717 9.83942 23.4848 10.0616 23.4848 10.5402L23.4848 12.0955Z" fill="#775DDE"/>
<path d="M28.1378 0.118652C33.2054 0.118652 37.3397 2.82345 37.4996 6.18643H38.931C39.4231 6.18643 39.7298 6.5411 39.4806 6.8274L35.5251 11.408C35.2822 11.6943 34.6688 11.6943 34.4196 11.408L30.464 6.8274C30.2212 6.5411 30.5279 6.18643 31.02 6.18643H32.4194C32.2661 4.69517 30.4065 3.51156 28.1379 3.51156C26.1889 3.51156 24.5402 4.38751 24.0163 5.57968C22.8277 5.31903 21.5561 5.17801 20.2333 5.17801C19.7924 5.17801 19.3578 5.1951 18.9297 5.22501C19.7413 2.32376 23.5622 0.118652 28.1378 0.118652Z" fill="#775DDE"/>
<path d="M6.03365 15.3218L9.98919 19.9024C10.232 20.1887 9.92529 20.5434 9.43324 20.5434H8.03377C8.18714 22.0346 10.0467 23.2182 12.3153 23.2182C14.2643 23.2182 15.913 22.3423 16.4369 21.1501C17.6319 21.4108 18.91 21.5518 20.2327 21.5518C20.6672 21.5518 21.0954 21.5347 21.5235 21.5048C20.7119 24.406 16.8906 26.611 12.3151 26.611C7.24748 26.611 3.11318 23.9063 2.95327 20.5433H1.52186C1.02983 20.5433 0.7231 20.1886 0.972287 19.9023L4.92783 15.3217C5.17066 15.0354 5.78446 15.0355 6.03365 15.3218Z" fill="#775DDE"/>
</svg>
